<svg xmlns="http://www.w3.org/2000/svg" width="185" height="96" fill="none" viewBox="0 0 185 96">
  <path fill="#81B3D3" d="M185 0H0l79.8097 90.1011c7.0392 7.8652 18.4406 7.8652 25.4793 0L185 0Z"/>
  <path fill="#23A9E1" d="M42.8296.696915 92.0043 58.8395 140.882 1.09515 42.8296.696915Z"/>
  <path fill="#fff" d="M120.954 17.2237c-5.056 0-10.013.0996-15.07.0996 5.949-6.8696 8.626-6.1727 15.07-.0996ZM80.1072 22.5999h26.4708c-1.983-1.1947-6.6423-7.0687-9.22-4.8784-.1983.1992-7.4357-8.86073-12.1945-4.4801-4.164 3.7832-6.0477-.4978-10.8066 2.489-5.2545 3.5841 3.1726 5.6748 5.7503 6.8695Z"/>
  <path fill="#491213" d="M92.3017 0H41.8382v22.4008l50.1661 61.229.2974-.3983 50.2653-60.1338V0H92.3017ZM54.4293 1.79207h5.4528V18.9163l-5.4528-6.4714V1.79207Zm-.7932 9.75683L48.679 5.67488V1.79207h4.9571v9.75683Zm19.1345-2.68813-5.6511-7.0687h5.6511v7.0687ZM66.2272 12.644l-5.552-10.85193h5.552V12.644Zm-5.6511-9.25899 5.4528 10.65289c-2.776 2.0907-4.6597 3.9823-5.4528 4.8784V3.38501Zm6.4443-.49779 5.5519 6.86959c-1.0905.59739-2.1811 1.29429-3.0734 1.89159-.8923.5974-1.6854 1.1947-2.4785 1.7921V2.88722Zm6.5434-.19912 4.7588 4.18149c-1.6854.69691-3.2717 1.49339-4.7588 2.28986V2.6881Zm5.552 3.88281-5.3537-4.77884h5.9485v4.57972c-.2974 0-.3966.09956-.5948.19912ZM98.052 1.79207h4.957l-4.957 2.38942V1.79207Zm-5.7503 0h4.3623l-4.3623 2.09074V1.79207Zm-.8923 1.99118-4.164-1.99118h4.164v1.99118Zm-5.4528.4978-5.0563-2.48898h5.0563v2.48898Zm-5.552-1.89163 4.6597 2.28986c-1.5863.39824-3.1726.79648-4.6597 1.29427V2.38942Zm6.3451 0 3.3709 1.59295c-1.1897.09956-2.2803.19912-3.47.39824V2.38942h.0991Zm10.3109.09956v1.89163c-1.0906-.19912-2.1812-.29868-3.3709-.39824l3.3709-1.49339Zm6.4444-.09956v3.68369c-1.487-.49779-3.074-.99559-4.759-1.39383l4.759-2.28986Zm.694-.59735h5.849l-5.353 4.77884c-.199-.09956-.298-.09956-.496-.19912V1.79207Zm13.483 0h5.552L117.682 12.644V1.79207Zm-6.543 0h5.651l-5.651 6.96914V1.79207Zm-.793.89603v6.47135c-1.487-.79647-3.074-1.59295-4.759-2.28986l4.759-4.18149Zm6.543.19912V13.3409c-.694-.4978-1.487-.9956-2.28-1.5929-.992-.6969-2.181-1.3938-3.371-2.09075l5.651-6.77003Zm6.345.49779V18.518c-1.09-.9956-2.875-2.6881-5.453-4.5797l5.453-10.55329Zm.793 15.92949V1.79207h5.453V13.1418l-5.453 6.1727c.099.0996 0 .0996 0 0Zm6.246-17.52243h4.957v4.67928l-4.957 5.77445V1.79207Zm-82.288 0v2.88721l-2.4786-2.88721h2.4786ZM60.6752 19.9118l.0992.0996s3.5691-3.8828 9.1211-7.5665c5.2546-3.48457 13.186-7.5665 22.1088-7.46694 8.8237 0 16.9537 4.18149 22.1087 7.66604 5.552 3.6837 9.22 7.467 9.319 7.5665l-3.866 4.4802c-6.841.896-11.798 6.0731-18.441 4.978-3.3704-.5974-3.4696-2.489-4.461-4.4802-.694-1.4934-1.8837-1.2943-3.47-1.8916-1.388-.5974-2.2803-1.6925-5.1554-1.0952-2.4786.5974-2.776 4.4802-5.9486 4.2811-1.6854-.0996-1.7845-2.489-4.164-5.4758-6.2459-7.5665-12.0953-6.4714-16.061.4978l30.0401 35.7418-31.2299-37.3348ZM135.924 5.47576V1.79207h3.173l-3.173 3.68369Z"/>
  <path fill="#23A9E1" d="m87.9394 70.5875 4.0649-6.4714 3.9657 6.4714-3.9657 6.4714-4.0649-6.4714Z"/>
  <path fill="#fff" d="M64.9384 32.1576c.4957.5974.8923 1.2943.7931 2.0908-.0991.5973-.8923 1.5929-.2974 1.792.694-.896 1.4871-1.8916 2.1811-2.7876-.5948-.1991-5.3537-5.7745-5.3537-6.4714-1.0905.5974-2.082 1.1947-3.1725 1.6925.1983.697 1.2888 0 1.8837 0 .7931.0996 1.388.5974 1.9828 1.1948-1.6854 1.3938-5.8494 4.9779-6.3451 5.0775-.1983 0-1.0906-.5974-1.0906-.0996 0 .2987.8923.9956.9915 1.1947.694.8961 1.4871 1.7921 2.1811 2.6881.5949-.2987-.0991-.6969.1983-1.1947.2974-.3982 4.858-4.281 6.0477-5.1771ZM59.6838 25.1885c.3966-.0996.5949.3982.9914-.0996-.7931-.9956-1.5862-1.8916-2.3794-2.8872-.3966-.3982-.7931-.896-.694 0 .0992.5974-6.0477 5.6749-6.4442 5.7744-.4958.1992-.7932-.3982-1.0906.0996.694.896 1.4871 1.6925 2.1811 2.5885.1983.2987.4957.5974.694.8961.2974.2987.1983-.6969.1983-.5974-.0991-.4978.4957-.896.8923-1.1947 1.4871-1.2943 5.2545-4.5797 5.6511-4.5797ZM50.9593 24.2925c-1.7846.4978-3.6683-.1992-4.164-1.9912-.4957-1.7921.5948-3.7833 2.082-4.7789 1.388-.9956 3.5691-.9956 4.3623.7965.2974.7965.1982 1.6925-.0992 2.489-.1983.4978-.5948.9956.0992 1.2943.8922-1.0952 1.6854-2.1904 2.5777-3.2855-1.0906-.5974-1.4872-1.6925-2.2803-2.5885-.8923-1.0952-2.082-2.0908-3.47-2.2899-2.8751-.3982-5.552 2.5885-5.7503 5.1771-.0991 1.4934.3966 2.7876 1.1897 3.9823.7932.9956 1.8837 1.593 2.3795 2.7877.2974.0996 2.6768-.9956 3.2717-1.2943-.0992-.0995-.0992-.1991-.1983-.2986 0 0-.694.1991 0 0ZM89.9223 60.532c-1.1897-.7965-3.9657-4.6793-4.5606-5.2766-.0991-.0996-.1982-.2987-.2974-.3983 0 0-.2974.1992-.1983.1992-.1983.0995.0992.5973-.0991.896-.7932 1.1947-5.7503 4.978-5.9486 5.1771-.5948.3982-1.1897-.1991-1.4871.2987.694.896 2.776 3.4845 2.9743 3.5841.4957.0995.0991-.7965.1982-.9956.0992-.3982 2.5778-2.3894 3.47-3.1859.2975-.2987.694.3982.8923.6969.2974.4978.4957.9956.2975 1.593-.0992.3982-.694.896-.2975 1.1947.5949-.6969 2.3794-2.7877 2.5777-2.9868.2975-.2987-.5948 0-.4957-.0996-.3966.1992-.694.1992-1.0906 0-.0991-.0995-1.0905-1.0951-.9914-1.1947.3966-.3982.9914-.9956 1.4872-1.0951.8922-.1991 1.5862 1.4934 1.6854 2.0907.0991.5974.0991 1.1947-.0992 1.7921-.0991.3982-.4957.6969 0 .896.694-.9956 1.388-1.8916 2.082-2.8872.1983-.1991 0-.2987-.0991-.2987.1983 0-.0992-.0995 0 0ZM79.8098 56.3505c2.1811-1.8916 2.4785-5.0775.7931-7.2678-1.8837-2.489-5.3537-3.0863-7.7331-1.0951-2.1812 1.8916-2.4786 4.9779-.7932 7.2678 1.9829 2.6881 5.1555 2.9868 7.7332 1.0951 1.1897-.896-.0992.0996 0 0Zm-.4958-4.6793c-.5948 1.4934-2.1811 3.0864-3.6682 3.6837-1.7846.697-3.0734-.7964-2.3794-2.5885.6939-1.4934 2.1811-3.0863 3.6682-3.6837 1.8837-.6969 3.0734.896 2.3794 2.5885.0992-.1991-.3965.8961 0 0ZM73.4646 41.8149c.4957.0995.8923.4978 1.2889 0-.694-.8961-1.4872-1.7921-2.1812-2.5886-.5948.2987.0001.4978-.1982.9956-.1983.3983-2.5777.7965-3.1726.8961.1983-.5974.8923-2.5886 1.1897-2.7877.4957-.3982.8923.3982 1.2889-.0996-.8923-1.0951-1.7846-2.1903-2.6769-3.2854-.2974-.3982-.5948-.9956-.9914-.6969 0 0 0 1.4934-.0991 1.6925-.0992.1991-.8923 3.5841-1.8838 4.4801-.4957.3983-2.1811 1.8917-2.6768 2.0908-.4957.1991-.7931-.5974-1.1897 0 .7931.9956 1.6854 1.9912 2.4785 2.9868.0992.0995.5949.896.7932.896.4957.0996.0991-.896.0991-1.0951.1983-.3983 2.4786-2.6881 3.47-2.8873 1.1897-.1991 2.9743-.6969 4.4614-.5973.2975.0995-.3965 0 0 0Z"/>
  <path fill="#DC6243" d="M67.2187 22.7991c-3.9657-.1992-2.3795-3.9824.3965-4.7789 2.5777-.7965 8.0306 1.6925 9.716 3.385-2.776.8961-6.3451.6969-9.3194.8961-.1983-3.1859-.9914-2.0908-.7931.4978ZM76.6372 35.244c-8.5263-.0996-2.776-13.2414.0991-12.4449 3.3709 1.0951 2.9743 12.5444-.0991 12.4449ZM82.6849 30.9629c-.7931 2.489-2.3794 2.9868-2.1811-.0995.1982-3.4846 2.4785-2.6881 4.8579-3.9824 1.9829-1.0952 3.0735-5.1771 6.5435-2.7877 1.5862 1.0952 3.3708.1992 3.8665 1.7921 0-.0996-4.4614 10.2546-1.9828 10.2546-4.9572 0-2.776-5.874-.8923-9.8564-1.7846.8961-4.7589 6.6705-2.3794 7.5665-1.2889 1.6925-5.1555 3.8829-7.1383 2.2899-1.4872-1.0951-.694-3.1859-.694-5.1771ZM86.7497 40.5206c-3.47.9956-8.0305-1.1947-2.4785-2.2899 3.47-.6969 7.1382.697 2.4785 2.2899.0992 0-.0991 0 0 0ZM91.112 40.421c-.694-1.6925.5948-3.5841 2.6768-2.1903 1.7846 1.1948-.8922 3.0864-2.6768 2.1903ZM88.1377 45.0008c-2.3794-.6969-10.4099-.5974-5.1554-2.7877 1.6854-.5973 10.1126.1991 5.1554 2.7877ZM98.5477 48.2862c-1.388-1.1947-2.8752-1.2942-4.164 0-1.7846-3.2854-8.2288-2.1903-11.3022-2.6881 1.5862 4.082 14.673 4.8784 15.4662 2.6881ZM96.664 50.7752c-3.1726-.0995-6.6426-.5973-9.5177.0996 1.8837.4978 6.3451 1.792 2.1811 2.8872 1.4872 2.1903 3.9657 1.9912 5.552.0995-.694-.2986-.9914-.6969-1.5863-1.0951 1.5863-.2987 3.1726-1.1947 3.3709-1.9912ZM100.233 46.8924c-5.2544-3.0863-3.9656-5.3762.397-7.5665 2.28-1.0952 7.237-5.1771 9.319-3.8828-3.272 3.8828-6.543 7.6661-9.716 11.4493Z"/>
  <path fill="#F49774" d="M96.4657 39.6246c-4.4614-4.5797 6.6423-4.1815 8.4273-5.7745 1.289.3983 10.707-8.2634 12.987-7.666-1.685 1.8916-5.155 8.0643-7.733 8.0643-1.982 0-3.965-.2987-5.452 1.0951-2.182 2.0908-5.8499 3.0864-8.2293 4.2811Z"/>
  <path fill="#F4B1A4" d="M97.9529 34.0493c-2.4786 1.2942-4.7589-3.8829-.4958-3.3851 2.7759.2987 5.6509-.1991 8.2289.1992-1.983 2.2898-4.66 3.5841-7.7331 3.1859Z"/>
  <path fill="#fff" d="M110.445 52.2686c.198.5974.297 1.2943.198 1.9912-.099.896-.991 2.8872-2.181 2.2898-1.19-.5973-2.181-1.6925-3.173-2.5885.794-.896 1.488-1.6925 2.876-1.2943.396.0996.694 0 .297-.2986-.397-.1992-3.073-1.9912-3.272-1.7921-.297.2987.496.896.199 1.4934-.199.3982-.595.7965-.893 1.1947-.694-.5974-1.883-1.2943-1.09-2.2899.495-.6969 1.289-1.1947 2.082-1.2942.595-.0996 1.784.3982 1.983-.1992-1.091-.4978-2.182-.9956-3.272-1.5929.198.7965-3.272 4.4802-4.065 5.4758-.099.0995-.694.5973-.694.7964 0 .3983.595.0996.694.0996.496-.1991 6.742 5.0775 6.94 5.4757.099.2987-.198.5974 0 .697 0 0 .198.1991.297.1991.397-.4978 4.462-5.9736 5.354-6.1727-.793-1.1947-1.586-2.3894-2.379-3.6837-.595.2987 0 .9956.099 1.4934ZM104.298 58.9391c-2.082-1.2943-5.552 1.2942-6.0477 1.4934-.9915.4978-1.7846-.4978-1.2889-1.4934.4957-.7965 1.388-1.1947 2.2803-1.2943.2974 0 1.2893.1991 1.4873 0 .099-.1991.198-.1991 0-.2987-.8924-.5973-1.6856-1.1947-2.5779-1.6925-.1983 1.0952-1.388 1.6925-2.082 2.3894-.7931.8961-1.4871 1.8917-1.4871 3.1859 0 1.0952.694 2.0908 1.6854 2.6881 1.0906.5974 2.2803.0996 3.2717-.4978.5949-.3982 1.2889-.896 1.8839-1.1947.991-.4978 2.28-.0995 1.983 1.2943-.298 1.0951-1.388 2.0907-2.38 2.2899-.595.1991-1.2886.0995-1.8834-.0996-.3966-.0996-.9915-.6969-1.1898-.0996 1.1898.7965 2.2802 1.6925 3.4702 2.489.099-.7965.496-1.0951 1.09-1.5929.694-.5974 1.388-1.2943 1.983-2.0908 1.19-1.6925 1.587-4.0819-.198-5.4757ZM104.298 58.9391c-.595-.4978.991.5973 0 0ZM140.683 19.5136c-.694.6969-8.328-2.2899-8.923-2.7876-.297-.0996-.297-1.2943-.694-.7965-.396.4978-.793.9956-1.189 1.4934-.397.4978-.793.9956-1.289 1.4934-.298.2986-.496.4978 0 .6969.793-.3983 5.354 7.2678 4.957 8.4625-.694.3982-6.841-5.0775-7.039-5.3762-.099-.0996.297-.9956-.198-.896-.199 0-.694.896-.893 1.0951-.297.3983-.595.6969-.892 1.0952.297.4978.496 0 .991 0 .397.0995 1.785 1.2942 2.182 1.6925-.694 0-2.677.0995-2.876.0995-.892.0996-.396-.6969-.991-.896-.793.896-1.487 1.7921-2.28 2.7877-.397.4978-.893 1.0951-1.289 1.5929-.099.0996 0 0 0 .0996.297.2987.099.1991.595 0 .495-.1991 6.543 4.8784 6.741 5.1771.397.3982-.198.9955.397 1.1947.595-.6969 1.19-1.4934 1.785-2.1903.099-.0996.099-.0996 0-.1992-.397-.3982-.496.1992-.992.1992-.496-.0996-4.362-3.3851-5.849-4.5798 1.784-.0995 7.237-.2986 8.129-.2986.298 0 1.091.896 1.091 1.1947-.099.3982-.496.5973.099.7964.496-.5973.992-1.0951 1.487-1.6925l.199-.2986c.099-.0996.099-.0996.198-.2987l.198-.1991c.397-.4978 1.785-1.9912 1.586-2.0908-.495-.3982-.694.4978-1.288-.0995-.298-.1992-1.19-1.7921-1.388-2.1903-.298-.3983.594-.8961.991-1.0952.793-.4978 3.173-1.1947 3.47.2987 0 .2987-.297.4978-.099.6969 0 0 .198.1991.297.1991.199-.1991 2.38-2.7876 3.272-3.9824-.297-.1991-.397-.2986-.496-.3982Zm-7.336 2.1903c.099 0 .198-.0995 0 0-.298.1991-.694.4978-.992.7965-.495-.896-.991-1.7921-1.586-2.6881 1.19.4978 2.379.9956 3.47 1.4934-.198.0995-.496.1991-.892.3982ZM123.73 32.8545c-2.38-1.9911-5.552-1.3938-7.535.7965-1.884 2.2899-1.685 5.6749.595 7.5665 2.28 1.8917 5.651 1.3939 7.535-.7964 1.883-2.2899 1.784-5.6749-.595-7.5666Zm-.298 6.571s0 .0995 0 0c-1.288 1.2942-3.37.0995-4.461-.697-1.091-.7964-3.073-2.5885-1.884-4.0819 1.091-1.2943 3.074-.1991 4.164.4978 1.19.7965 3.371 2.5886 2.281 4.1815.099-.0996.099-.0996-.1.0996Z"/>
  <path fill="#fff" d="M123.73 32.8546c-.298-.1992 1.19.9955 0 0ZM123.432 39.5255c0-.1 0-.1 0 0l.1-.1c-.1 0-.1.1-.1.1ZM117.186 41.9144c.1.0996.298.2987 0 0-2.875-2.1903-6.245-1.5929-8.427 1.0952-.991 1.1947-1.982 2.3894-2.974 3.5841.397.4978.793-.0995 1.289.1991.397.2987 6.147 5.0776 6.246 5.3762.198.4978-.297.4978.099.8961.198.0995 4.461-5.1771 4.858-6.1727.892-1.7921.297-3.6837-1.091-4.978Zm-1.288 6.7701c-.199.2987 0 .0995-.694.6969-.298.2987-6.345-4.6793-6.147-4.8784.793-.896 2.578-1.593 3.569-1.2943 2.181.4978 5.155 3.1859 3.272 5.4758Z"/>
</svg>
