<svg xmlns="http://www.w3.org/2000/svg">
  <style>
    :root svg:not(:target) {
      display: none;
    }
    </style>

    <svg id="icon-housing" fill="none" viewBox="0 0 40 38">
      <path fill="#81B3D2" d="M15.9 33.8h8.35V21.65H15.9V33.8Zm6.84-1.47h-5.32v-9.2h5.27v9.2h.05Z"/>
      <path fill="#81B3D2" d="m38.4 20.63 1.1-1.07-5.17-5.04V.8h-7.2V7.5L19.97.58.5 19.61l1.1 1.07 4.07-3.97v19.23H3.63v1.48H37v-1.48h-2.66V16.66l4.07 3.97ZM28.64 2.3h4.13v10.74l-4.13-4.02V2.3Zm4.18 33.58H7.23v-20.7L19.97 2.71l12.8 12.46v20.7h.05Z"/>
      <path fill="#81B3D2" d="M16.06 14.42a4.01 4.01 0 0 0 4.02 3.97 4.03 4.03 0 0 0 4.07-3.97 3.98 3.98 0 0 0-4.07-3.92 3.94 3.94 0 0 0-4.02 3.92Zm4.02-2.54a2.59 2.59 0 0 1 2.6 2.54 2.58 2.58 0 0 1-2.6 2.55 2.59 2.59 0 0 1-2.61-2.55c0-1.37 1.2-2.54 2.6-2.54ZM10.89 21.65H9.32v1.98h1.57v-1.98ZM13.97 21.65H12.4v1.98h1.57v-1.98ZM10.89 24.7H9.32v1.98h1.57V24.7ZM13.97 24.7H12.4v1.98h1.57V24.7ZM27.54 21.65h-1.56v1.98h1.56v-1.98ZM30.68 21.65H29.1v1.98h1.57v-1.98ZM27.54 24.7h-1.56v1.98h1.56V24.7ZM30.68 24.7H29.1v1.98h1.57V24.7Z"/>
    </svg>

    <svg id="icon-food" fill="none" viewBox="0 0 40 36">
      <path fill="#81B3D2" d="M37.74 23.85H2.26A2.23 2.23 0 0 0 0 26.03v1.77c0 1.17 1 2.13 2.26 2.13h.52v.5a5.12 5.12 0 0 0 5.2 5.02h24.04c2.89 0 5.2-2.28 5.2-5.01v-.51h.52c1.21 0 2.26-.96 2.26-2.18v-1.77c0-1.12-1-2.13-2.26-2.13Zm-2.04 6.59c0 1.92-1.63 3.49-3.63 3.49H7.93c-2 0-3.63-1.57-3.63-3.5v-.5h31.4v.5Zm2.73-2.69c0 .36-.32.66-.69.66H2.26a.68.68 0 0 1-.69-.66v-1.77c0-.3.32-.61.69-.61H37.8c.36 0 .68.3.68.66v1.72h-.05ZM8.5 19.75l2.84 2.02 2.89-2.02 2.88 2.02L20 19.75l2.83 2.02 2.9-2.02 2.88 2.02 2.89-2.02 2.88 2.02 3.31-2.38-.9-1.21-2.4 1.67-2.9-2.03-2.88 2.03-2.89-2.03-2.89 2.03L20 17.82l-2.89 2.03-2.88-2.03-2.9 2.03-2.83-2.03-2.88 2.03-2.42-1.67-.94 1.21 3.36 2.38 2.88-2.02ZM37.22 16.3c0-.3.05-1.31 0-1.52C36.85 6.88 29.29.55 20 .55 10.7.55 3.1 6.88 2.73 14.78v1.52h34.49ZM20 2.07c8.4 0 15.33 5.67 15.64 12.71H4.3C4.67 7.74 11.6 2.07 20 2.07Z"/>
      <path fill="#81B3D2" d="M20 9.16c.58 0 1.05-.45 1.05-1.01S20.58 7.14 20 7.14c-.58 0-1.05.45-1.05 1 0 .57.47 1.02 1.05 1.02ZM15.8 6.68c.58 0 1.05-.45 1.05-1.01s-.47-1.02-1.05-1.02c-.58 0-1.05.46-1.05 1.02s.47 1 1.05 1ZM24.2 6.68c.58 0 1.05-.45 1.05-1.01s-.47-1.02-1.05-1.02c-.58 0-1.05.46-1.05 1.02s.47 1 1.05 1Z"/>
    </svg>

    <svg id="icon-souvenir" fill="none" viewBox="0 0 78 76">
      <path fill="#81B3D2" d="M74.44 22.12h-30c16.72-6.8 18.08-11.1 17.46-13.5-1.35-3.9-6.88-6.9-12.05-5.3-6.76 2.1-8.6 10.3-10.45 16.2-2.33-6-4.55-13.6-9.83-17.5a10.21 10.21 0 0 0-7.01-2c-4.92.4-11.93 5.3-8.98 10.8 2.7 5.3 11.68 8.7 17.7 11.4H3.88c-1.97 0-3.44 1.3-3.44 2.8v11.2c0 1.6 1.6 2.8 3.44 2.8h.37v36h70.08v-36h.12c1.97 0 3.45-1.3 3.45-2.8v-11.2c0-1.6-1.6-2.9-3.45-2.9ZM51.82 5.82c2.58-.3 6.02 1.3 6.4 3.2.48 2.7-4.06 5.2-6.15 6.3-3.08 1.7-6.03 2.6-8.86 4 .99-3.7 3.08-12.9 8.61-13.5Zm-27.79 9.8c-2.7-1.5-7.87-4.4-7.74-7.7.12-3.6 7-6.5 10.7-3.8 4.67 3.3 6.88 11 8.6 16.4-3.93-1.6-7.62-2.8-11.56-4.9Zm7.26 56.4H7.8v-33H31.3v33Zm0-36H4.1v-10.9H31.3v10.9Zm12.3 36h-8.74v-46.9h8.73v46.9Zm27.04 0H47.27v-33h23.48v33h-.12Zm3.57-36H47.27v-10.9H74.2v10.9Z"/>
    </svg>

    <svg id="icon-vkontakte" viewBox="0 0 24 14" fill="none">
      <path fill-rule="evenodd" clip-rule="evenodd" d="M23.45 0.948C23.616 0.402 23.45 0 22.655 0H20.03C19.362 0 19.054 0.347 18.887 0.73C18.887 0.73 17.552 3.926 15.661 6.002C15.049 6.604 14.771 6.795 14.437 6.795C14.27 6.795 14.019 6.604 14.019 6.057V0.948C14.019 0.292 13.835 0 13.279 0H9.151C8.734 0 8.483 0.304 8.483 0.593C8.483 1.214 9.429 1.358 9.526 3.106V6.904C9.526 7.737 9.373 7.888 9.039 7.888C8.149 7.888 5.984 4.677 4.699 1.003C4.45 0.288 4.198 0 3.527 0H0.9C0.15 0 0 0.347 0 0.73C0 1.412 0.89 4.8 4.145 9.281C6.315 12.341 9.37 14 12.153 14C13.822 14 14.028 13.632 14.028 12.997V10.684C14.028 9.947 14.186 9.8 14.715 9.8C15.105 9.8 15.772 9.992 17.33 11.467C19.11 13.216 19.403 14 20.405 14H23.03C23.78 14 24.156 13.632 23.94 12.904C23.702 12.18 22.852 11.129 21.725 9.882C21.113 9.172 20.195 8.407 19.916 8.024C19.527 7.533 19.638 7.314 19.916 6.877C19.916 6.877 23.116 2.451 23.449 0.948H23.45Z" fill="#ffffff"/>
    </svg>

    <svg id="icon-telegram" viewBox="0 0 22 18" fill="none">
      <path d="M21.4393 1.62225L18.2705 16.566C18.0313 17.6205 17.408 17.883 16.5223 17.3865L11.6938 13.8285L9.36425 16.0695C9.10626 16.3275 8.891 16.5428 8.39375 16.5428L8.741 11.6258L17.6893 3.54C18.0785 3.1935 17.6045 3.00075 17.0848 3.348L6.02225 10.314L1.25976 8.823C0.224006 8.49975 0.205256 7.78725 1.47576 7.29L20.1035 0.113253C20.966 -0.209997 21.7205 0.305253 21.4393 1.623V1.62225Z" fill="#ffffff"/>
    </svg>

    <svg id="icon-youtube" fill="none" viewBox="0 0 20 14">
      <path fill="#fff" d="M17.18 0H2.81C1.31 0 0 1.3 0 2.8v8.3C0 12.7 1.3 14 2.81 14h14.37A2.8 2.8 0 0 0 20 11.2V2.8c.1-1.5-1.2-2.8-2.8-2.8ZM7.03 10.4V3.6L13.87 7l-6.84 3.4Z"/>
    </svg>

    <svg id="tick" viewBox="0 0 23 16" fill="none">
      <path d="M22.3053 1.30662L21.259 0.22188C20.9736 -0.0739599 20.4029 -0.0739599 20.1176 0.22188L8.79884 11.9569L2.90167 5.84283C2.61633 5.54699 2.04563 5.54699 1.76028 5.84283L0.71401 6.92758C0.428663 7.22342 0.428663 7.8151 0.71401 8.11094L8.13303 15.8028C8.32326 16 8.51349 16 8.70373 16C8.89396 16 9.08419 15.9014 9.27442 15.8028L22.115 2.48999C22.5906 2.19415 22.5906 1.70108 22.3053 1.30662Z" fill="#333333"/>
    </svg>

    <svg id="phone" viewBox="0 0 18 18" fill="none">
      <path d="M3.6 7.8C5 10.6 7.4 12.9 10.2 14.4L12.4 12.2C12.7 11.9 13.1 11.8 13.4 12C14.5 12.4 15.7 12.6 17 12.6C17.6 12.6 18 13 18 13.6V17C18 17.6 17.6 18 17 18C7.6 18 0 10.4 0 1C0 0.4 0.4 0 1 0H4.5C5.1 0 5.5 0.4 5.5 1C5.5 2.2 5.7 3.4 6.1 4.6C6.2 4.9 6.1 5.3 5.9 5.6L3.6 7.8Z" fill="#010101"/>
    </svg>

    <svg id="email" viewBox="0 0 16 12" fill="none">
      <path d="M8 8C7.7 8 7.5 7.9 7 7.7L0 4V11C0 11.5 0.5 12 1 12H15C15.5 12 16 11.5 16 11V4L9 7.7C8.5 7.9 8.3 8 8 8ZM15 0H1C0.5 0 0 0.5 0 1V1.8L8 6L16 1.8V1C16 0.5 15.5 0 15 0Z" fill="black"/>
    </svg>

    <svg id="play" viewBox="0 0 48 54" fill="none">
      <path d="M48 27L0 54L2.42273e-06 0L48 27Z" fill="white"/>
    </svg>

    <svg id="like-icon" fill="none" viewBox="0 0 23 21">
      <path fill="#000" d="m12.96 3.78-.62 3.05-.63 2.62h9.09v2.2l-3.03 7.25h-9.4V8.4l4.6-4.62ZM2.1 10.5v8.4-8.4ZM13.8 0 6.9 6.93c-.42.32-.63.84-.63 1.47v10.5c0 1.16.94 2.1 2.1 2.1h9.4c.84 0 1.57-.52 1.88-1.26l3.14-7.45c.1-.21.1-.53.1-.74v-2.1H23a2.1 2.1 0 0 0-2.1-2.1h-6.58l1.05-4.83v-.31c0-.43-.21-.84-.42-1.16L13.8 0ZM4.18 8.4H0V21h4.18V8.4Z"/>
    </svg>

    <svg id="map-marker" viewBox="0 0 27 27" fill="none">
      <path d="M13.5 27C20.9558 27 27 20.9558 27 13.5C27 6.04416 20.9558 0 13.5 0C6.04416 0 0 6.04416 0 13.5C0 20.9558 6.04416 27 13.5 27Z" fill="white"/>
      <path d="M13.5 21.8996C18.1392 21.8996 21.9 18.1388 21.9 13.4996C21.9 8.86042 18.1392 5.09961 13.5 5.09961C8.86078 5.09961 5.09998 8.86042 5.09998 13.4996C5.09998 18.1388 8.86078 21.8996 13.5 21.8996Z" fill="#81B3D3"/>
    </svg>

    <svg id="hero__img" fill="none" viewBox="0 0 282 214">
      <path fill="#766458" d="m101.39 42.8-.13.13a3.83 3.83 0 0 1-2.76 1.34l1.72-3c1.1-1.89.06-3.72-1.66-3.72-1.41 0-2.51.55-3.56 2.38l-.92 1.59-.73 1.28-.13.13c-1.35 1.53-2.64 2.75-3.43 2.75-.43 0-.62-.3-.19-.98l3.93-6.85H95l.55-.85h-1.53l1.72-3H93.9l-1.72 3h-1.66l-.55.85h1.66l-3.69 6.36c-.8 1.35-.24 2.63 1.23 2.63 1.05 0 2.27-.8 3.38-1.9 0 2.33 3.25 2.82 5.21.31h.43c1.1 0 2.83-.67 3.75-1.77 0-.3-.31-.55-.55-.68Zm-3.93.13h-.06a1.1 1.1 0 0 0-.92 1.7v.07c-.86 1.47-2.95 1.22-1.9-.73l1.4-2.39.86-1.47c1.3-2.2 3.07-1.34 1.97.55l-1.35 2.27ZM126.85 42.8l-.12.13c-1.35 1.53-3 2.75-4.3 2.75-1.1 0-1.77-.74-.98-2.2l.19-.3c1.16.48 3.43.24 4.78-2.15l.25-.43c.98-1.7.06-2.93-1.47-2.93-1.48 0-2.64.8-3.44 2.14l-1.78 3.06-.12.12c-1.35 1.53-2.64 2.75-3.44 2.75-.43 0-.61-.3-.18-.98l2.64-4.65c.8-1.4.06-2.38-.99-2.38-.8 0-1.65.43-2.57 1.4l2.94-5.07h-1.84l-5.1 8.74-.12.13c-1.35 1.53-2.64 2.75-3.43 2.75-.43 0-.62-.3-.19-.98l3.93-6.85h1.47l.56-.86H112l1.72-3h-1.84l-1.72 3h-1.66l-.55.86h1.66l-3.68 6.36c-.8 1.35-.25 2.63 1.22 2.63.74 0 1.54-.37 2.34-.98l-.5.8h1.85l2.76-4.83c2.82-3.55 4.05-3.06 3.31-1.72l-2.4 4.16c-.79 1.35-.24 2.63 1.24 2.63 1.1 0 2.33-.85 3.43-1.96.06 1.17 1.05 1.96 2.52 1.96 2.08 0 4.17-1.59 5.64-3.36.07-.37-.24-.61-.49-.74Zm-3.5-2.56c1.05-1.84 2.95-1.53 1.85.36l-.25.43c-.86 1.47-2.09 1.47-2.76 1.22l1.17-2.01ZM193.81 42.8l-.12.13c-.68.8-1.48 1.46-2.21 2.01.61-1.77.43-4.4 1.6-6.78l-1.36-.74c-.73 1.04-2.39 3.43-4.1 5.38l-.13.13c-1.35 1.53-2.64 2.75-3.44 2.75-.43 0-.61-.3-.18-.98l3.92-6.85h-1.84l-3.25 5.69c-1.41 1.28-2.45 1.95-2.82 1.83-.43-.18 0-.85.24-1.28l3.56-6.24h-1.84l-2.88 4.95-.13.13a3.83 3.83 0 0 1-2.76 1.34l1.72-3c1.1-1.89.06-3.72-1.66-3.72-1.4 0-2.51.55-3.56 2.38l-.91 1.59-.74 1.28-.12.13c-1.36 1.53-3.01 2.75-4.3 2.75-1.1 0-1.78-.74-.98-2.2l.18-.3c1.17.48 3.44.24 4.79-2.15l.24-.43c.99-1.7.07-2.93-1.47-2.93-1.47 0-2.64.8-3.44 2.14l-1.78 3.06-.12.12c-1.53 1.77-2.82 2.87-4.3 3.48l4.12-7.03h-1.1c0-.73-.8-1.77-1.9-1.77-1 0-2.4.8-3.14 2.14l-1.78 3.06-.12.12c-1.35 1.53-2.64 2.75-3.44 2.75-.43 0-.61-.3-.18-.98l1.84-3.18c.61-1.1.3-1.77-.25-2.5l-1.04-1.23c-.25-.3-.25-.73.12-1.04l-.98-1.04c-1.04.92-1.1 1.96-.49 2.82l.18.18a45.9 45.9 0 0 1-3.13 4.1l-.12.12a3.83 3.83 0 0 1-2.76 1.34l1.72-3c1.1-1.89.06-3.72-1.66-3.72-1.41 0-2.52.55-3.56 2.38l-.92 1.6-.74 1.28-.12.12c-1.53 1.77-2.82 2.87-4.3 3.48l4.12-7.03h-1.1c0-.73-.8-1.77-1.91-1.77-.98 0-2.4.8-3.13 2.14l-2.58 4.46c-.8 1.35-.24 2.63 1.23 2.63.5 0 1.1-.24 1.78-.61l-.5.86c-2.45.73-4.04 1.77-4.04 3.11 0 1.78 2.7 2.14 4.05-.12l1.41-2.38a11.4 11.4 0 0 0 4.42-2.75c0 2.32 3.25 2.8 5.22.3h.42c1.11 0 2.83-.67 3.75-1.77.86-1.04 1.6-1.96 3.07-3.92l.24.31c.25.3.31.67.13 1.04l-1.97 3.36c-.8 1.35-.24 2.63 1.23 2.63.92 0 1.96-.6 2.94-1.47 0 .86.56 1.47 1.6 1.47.5 0 1.1-.24 1.78-.6l-.43.72c-2.45.74-4.05 1.78-4.05 3.12 0 1.78 2.7 2.14 4.05-.12l1.41-2.38a11.79 11.79 0 0 0 4.48-2.82c.06 1.17.98 1.96 2.52 1.96 1.47 0 3-.86 4.23-1.96-.06 2.39 3.26 2.88 5.22.37h.43a4.6 4.6 0 0 0 2.03-.55c-.5 1.28-.07 2.14.98 2.14.98 0 2.14-.92 3-1.77-.18.98.43 1.77 1.6 1.77 1.53 0 3.25-1.59 4.79-3.36 1.04-1.23 1.96-2.51 2.64-3.37-.74 1.9-.31 5.32-2.1 5.32-.6 0-.85-.67-.85-.67l-1.17.61s.31 1.47 2.03 1.47c.18 0 .3 0 .49-.06h.06c1.9-.25 3.75-1.71 5.1-3.3a.94.94 0 0 0-.68-.68Zm-26.33-2.56c1.05-1.84 2.95-1.53 1.84.36l-.24.43c-.86 1.47-2.09 1.47-2.77 1.22l1.17-2.01Zm-35.1 9.54c-.37.67-.98.6-.98.06 0-.5.42-1.04 1.84-1.6l-.86 1.54Zm.86-4.1c-.43 0-.62-.3-.19-.98l2.58-4.46c.98-1.72 2.95-1.29 2.03.36l-1.42 2.45c-1.1 1.77-2.27 2.63-3 2.63Zm11.29-2.75h-.06a1.1 1.1 0 0 0-.92 1.7v.07c-.86 1.47-2.95 1.22-1.9-.73l1.4-2.39.86-1.47c1.3-2.2 3.07-1.34 1.97.55l-1.35 2.27Zm11.54 6.85c-.37.67-.98.6-.98.06 0-.5.42-1.04 1.84-1.6l-.86 1.54Zm.86-4.1c-.43 0-.62-.3-.19-.98l2.58-4.46c.98-1.72 2.94-1.29 2.02.36l-1.4 2.45c-1.11 1.77-2.28 2.63-3.01 2.63Zm18.1-2.75h-.06a1.1 1.1 0 0 0-.92 1.7v.07c-.86 1.47-2.95 1.22-1.9-.73l1.4-2.39.87-1.47c1.29-2.2 3.07-1.34 1.96.55l-1.35 2.27ZM79.84 40.85H62.11v1.22h17.73v-1.22ZM219.16 40.85h-17.74v1.22h17.74v-1.22Z"/>
      <path fill="#81B3D3" d="M100.03 0h4.73l-.74 27.46h-8.9L93.9 16.14l-1.23 11.32h-8.96L83.04 0h4.66l.37 22.75h.49l3-22.75h4.67l3 22.75h.5l.3-22.75ZM119.55 22.75v4.77h-12.83V0h12.83v4.7h-8.16v6.61h6.5v4.71h-6.5v6.67h8.16v.06ZM132.68 22.75v4.77h-11.23V0h4.67v22.75h6.56ZM142.63 17.37l4.72-1.1v8.31a2.92 2.92 0 0 1-2.88 2.88h-7.06a2.92 2.92 0 0 1-2.88-2.88V2.88A2.88 2.88 0 0 1 137.4 0h7.06a2.92 2.92 0 0 1 2.88 2.87v5.57l-4.72 1.1v-4.9h-3.38V22.7h3.38v-5.32ZM160.12 0A2.92 2.92 0 0 1 163 2.87v21.65a2.92 2.92 0 0 1-2.88 2.87h-7.06a2.92 2.92 0 0 1-2.88-2.87V2.87A2.88 2.88 0 0 1 153.06 0h7.06Zm-1.84 4.7h-3.38v18.05h3.38V4.7ZM178.34 0h4.67v27.46h-4.67V13.94l-1.9 6.97h-4.6L170 13.94v13.52h-4.67V0H170l4.17 13.27L178.34 0ZM198.17 22.75v4.77h-12.83V0h12.83v4.7H190v6.61h6.5v4.71h-6.5v6.67h8.16v.06Z"/>
      <path fill="#fff" d="M27.19 96.37a12.52 12.52 0 0 0-7.92-3.06c-2.2 0-5.1 1.29-5.1 3.86 0 2.69 3.26 3.73 5.28 4.34l3.07.92c6.39 1.9 11.36 5.07 11.36 12.47 0 4.52-1.1 9.23-4.73 12.3-3.62 3.05-8.4 4.27-13 4.27A28.64 28.64 0 0 1 0 126.27l4.97-9.47c3 2.63 6.5 4.7 10.62 4.7 2.82 0 5.77-1.4 5.77-4.58 0-3.36-4.67-4.47-7.24-5.2-7.5-2.2-12.4-4.1-12.4-12.96 0-9.3 6.63-15.35 15.83-15.35 4.6 0 10.31 1.47 14.36 3.79l-4.72 9.17ZM56.22 94.66v7.64h13.44v10.1H56.22v7.88h14.23v10.1H44.31V84.62h26.14v10.1l-14.23-.07ZM79.3 84.63h16.93c12.77 0 23.32 10.03 23.32 22.87 0 12.84-10.62 22.87-23.32 22.87H79.29V84.63Zm11.96 35.65h2.7c7.12 0 13.2-3.91 13.2-12.78 0-8.2-5.4-12.78-13.08-12.78h-2.82v25.56ZM175.95 106.64c0 14.8-10.68 25.26-25.4 25.26-14.74 0-25.41-10.46-25.41-25.26 0-13.81 12.2-23.54 25.4-23.54s25.41 9.73 25.41 23.55Zm-38.42.07c0 7.89 5.83 13.63 12.95 13.63 7.12 0 12.95-5.75 12.95-13.63 0-6.3-5.83-12.11-12.95-12.11-7.06 0-12.95 5.8-12.95 12.1ZM182.27 84.63h11.97l21.85 28h.12v-28h11.97v45.74H216.2l-21.85-28.07h-.12v28.07h-11.97V84.63ZM249.84 122.42l-3.19 7.95h-12.64l17.67-45.74h13.01L282 130.37h-12.7l-3.01-7.95h-16.45Zm8.35-23.66h-.13l-4.9 14.55h9.94l-4.91-14.55ZM66.22 175.93c4.73-1.6 5.03-7.46.43-7.46-1.29 0-2.82.91-3.87 2.69l-6.26 10.82c-.3.49-.55.92-.92 1.34-1.6-2.2-1.16-5.5 1.1-6.97l-.91-1.16c-4.91 3.12-3.44 12.05 4.72 12.05 6.94 0 10.19-8.32 5.71-11.31Zm-5.77 9.53c-1.41 0-2.45-.3-3.37-.79.42-.49.8-1.04 1.16-1.65l3.93-6.79.61.06c5.46 1.17 3.32 9.18-2.33 9.18Zm2.52-10.57 1.9-3.24c1.72-2.94 3.87-1.23 2.7.97-.92 1.72-2.21 2.2-4.6 2.27Z"/>
      <path fill="#fff" d="M85.92 183.45c-.37 1.34.37 2.5 1.9 2.5.92 0 2.09-.6 3.25-1.52.13.91.86 1.53 2.03 1.53 1.23 0 2.58-.86 3.93-2.08-.25 1.22.3 2.08 1.47 2.08 1.29 0 2.7-1.17 3.8-2.2-.24 1.22.5 2.2 1.97 2.2 1.9 0 4.11-2.08 6.08-4.28 0-.07-.07-.07-.07-.13 1.3-1.47 2.4-3.06 3.26-4.16-.92 2.39-.43 6.73-2.64 6.73-.8 0-1.1-.86-1.1-.86l-1.48.74s.43 1.9 2.58 1.9c.24 0 .43 0 .67-.07h.06c1.72-.24 3.38-1.28 4.85-2.57.06 1.53 1.23 2.63 3.13 2.63 2.64 0 5.28-2.07 7.18-4.28-.18-.3-.55-.67-.86-.8l-.18.2c-1.66 1.95-3.8 3.48-5.46 3.48-1.41 0-2.27-.92-1.23-2.75l.25-.43c1.47.6 4.3.3 6.07-2.7l.3-.54c1.23-2.14.07-3.73-1.83-3.73-1.9 0-3.38.97-4.36 2.69l-2.27 3.85h-.06l-.19.18c-.86.98-1.9 1.9-2.82 2.51.74-2.2.55-5.63 2.03-8.56l-1.72-.92c-.98 1.35-3.07 4.34-5.16 6.79l.06.06-.06.12c-1.66 1.96-3.31 3.49-4.36 3.49-.49 0-.8-.37-.24-1.29l4.97-8.68h-2.33l-4.11 7.22c-1.78 1.59-3.13 2.5-3.56 2.32-.56-.24 0-1.1.3-1.59l4.55-7.89h-2.34L98.5 181c-.06-.06-.12-.06-.18-.12l-.19.18c-1.65 1.96-3.31 3.49-4.35 3.49-.5 0-.8-.37-.25-1.29l3.74-6.54h-1.35c.06-.98-.92-2.32-2.45-2.32-1.23 0-3 .98-4 2.69l-2.32 4.03c-.13-.12-.25-.18-.37-.24l-.19.18c-1.65 1.96-3.8 3.49-5.46 3.49-1.4 0-2.27-.92-1.22-2.75l2.39-4.16c1.35-2.32 3.74-1.9 2.33.49l-.3.55h1.9l.3-.55c1.23-2.14.06-3.73-1.84-3.73-1.9 0-3.37.98-4.36 2.69L78 181.06c-.06-.06-.12-.06-.18-.12l-.19.19c-1.65 1.95-3.8 3.48-5.46 3.48-1.4 0-2.27-.92-1.22-2.75l.24-.43c1.47.61 4.3.3 6.08-2.69l.3-.55c1.23-2.14.06-3.73-1.84-3.73-1.9 0-3.37.98-4.36 2.69l-2.45 4.16c-1.47 2.44-.18 4.77 2.58 4.77 2.02 0 4.1-1.23 5.77-2.82-.07 1.6 1.16 2.82 3.13 2.82 1.96-.13 3.86-1.23 5.52-2.63Zm35.6-5.87c1.34-2.33 3.74-1.9 2.33.49l-.31.55c-1.1 1.9-2.64 1.83-3.5 1.53l1.47-2.57Zm-33.27 5.68 3.25-5.62c1.23-2.14 3.75-1.6 2.58.49l-1.84 3.18c-1.41 2.2-2.82 3.24-3.74 3.24-.5-.06-.8-.37-.25-1.29Zm-14.85-5.68c1.35-2.33 3.74-1.9 2.33.49l-.3.55c-1.11 1.9-2.64 1.83-3.5 1.53l1.47-2.57ZM152.32 185.95c2.64 0 5.28-2.07 7.18-4.28-.18-.3-.55-.67-.86-.8l-.18.2c-1.66 1.95-3.8 3.48-5.46 3.48-1.41 0-2.27-.92-1.23-2.75l.25-.43c1.47.6 4.3.3 6.07-2.7l.3-.54c1.24-2.14.07-3.73-1.83-3.73-1.9 0-3.38.97-4.36 2.69l-2.27 3.85s-.06 0-.06-.06l-.19.18c-1.65 1.96-3.31 3.49-4.35 3.49-.5 0-.8-.37-.25-1.29l3.38-5.87c.98-1.77.06-3.05-1.23-3.05-.98 0-2.09.55-3.25 1.77l3.74-6.42h-2.4L138.77 181c-.06-.06-.18-.12-.25-.18l-.18.18c-1.66 1.96-3.31 3.49-4.36 3.49-.49 0-.8-.37-.24-1.29l4.97-8.68h1.9l.68-1.1h-1.9l2.2-3.8h-2.33l-2.2 3.8h-2.1l-.67 1.1h2.15l-4.67 8.07c-.98 1.71-.3 3.3 1.6 3.3 1.16 0 2.4-.73 3.68-1.83l-.92 1.59h2.33l3.56-6.12c3.56-4.46 5.16-3.91 4.18-2.2l-3.01 5.26c-.98 1.71-.3 3.3 1.6 3.3 1.4 0 3-1.1 4.47-2.56 0 1.52 1.17 2.62 3.07 2.62Zm1.9-8.37c1.36-2.33 3.75-1.9 2.34.49l-.3.55c-1.11 1.9-2.65 1.83-3.5 1.53l1.47-2.57ZM222.9 180.88l-.18.18c-1.66 1.96-3.32 3.49-4.36 3.49-.5 0-.8-.37-.25-1.29l7.86-13.57h-2.33l-3.44 5.87a2.53 2.53 0 0 0-2.15-1.22c-1.23 0-3 .97-3.99 2.69l-2.27 3.91c-.06 0-.12-.06-.12-.06l-.18.18c-1.66 1.96-3.32 3.49-4.36 3.49-.5 0-.8-.37-.25-1.29l3.38-5.87c.98-1.77.06-3.05-1.23-3.05-.98 0-2.09.55-3.25 1.7l.86-1.52h-2.34l-3.74 6.42c-.06-.06-.12-.12-.25-.12l-.18.18c-1.66 1.96-3.31 3.49-4.36 3.49-.49 0-.8-.37-.24-1.29l3.74-6.54h-1.16c.06-.98-.93-2.32-2.46-2.32-1.23 0-3 .97-3.99 2.69l-2.27 3.85-.12.12c-1.66 1.96-3.32 3.49-4.36 3.49-.49 0-.8-.37-.24-1.29l2.33-4.03c.8-1.41.43-2.2-.3-3.12l-1.3-1.6c-.3-.42-.3-.9.13-1.34l-1.23-1.34c-1.35 1.16-1.41 2.5-.62 3.54l.19.25c-1.05 1.47-2.4 3.42-3.93 5.2l.18.18c-1.9 2.2-3.56 3.6-5.4 4.4l2.95-5.01h-2.27l-.25.43c-1.22 2.14-2.64 3.73-4.48 3.73-1.6 0-1.9-1.6-.49-3.98l.68-1.16c.43.06.86.12 1.35.12 8.28 0 12.27-11.06 4.97-11.06-1.29 0-2.83.91-3.87 2.69l-3.62 6.23a3.8 3.8 0 0 1-2.09-3.3c0-1.1.5-2.14 1.48-2.94l-.74-1.34a5.24 5.24 0 0 0-2.4 4.34c0 1.84 1.05 3.6 2.95 4.59l-.67 1.22c-1.66 2.81-1.35 5.93 1.96 5.93.98 0 1.84-.3 2.52-.73l-.61 1.04c-3.13.98-5.1 2.2-5.1 3.97 0 2.2 3.44 2.7 5.1-.18l1.77-3.06c2.4-.73 4.8-2.38 7.37-5.38-.06-.06-.06-.12-.12-.24 1.04-1.23 1.9-2.39 3.68-4.77l.3.36c.31.37.44.86.13 1.35l-2.46 4.28c-.98 1.71-.3 3.3 1.6 3.3 1.16 0 2.45-.73 3.68-1.83 0 1.04.68 1.83 2.03 1.83.92 0 2.08-.61 3.25-1.53.12.92.86 1.53 2.02 1.53 1.1 0 2.34-.67 3.5-1.71l-.86 1.47h2.34l3.56-6.18c3.55-4.46 5.15-3.85 4.1-2.14l-3 5.26c-.98 1.71-.3 3.3 1.6 3.3 1.22 0 2.57-.86 3.92-2.02-.12 1.16.62 2.02 2.03 2.02.92 0 2.09-.61 3.25-1.53.12.92.86 1.53 2.03 1.53 1.9 0 4.1-2.08 6.07-4.28-.24-.12-.67-.49-.98-.61Zm-47.8-8.68c.67-1.17 1.47-1.72 2.08-1.72 3.68 0 1.1 7.53-4.97 7.53h-.5l3.38-5.81Zm-4.98 17.49c-.49.85-1.29.73-1.29.12 0-.62.55-1.29 2.33-1.96l-1.04 1.84Zm24.37-8.44c-1.42 2.2-2.83 3.24-3.75 3.24-.49 0-.8-.37-.24-1.29l3.25-5.62c1.23-2.14 3.74-1.6 2.58.49l-1.84 3.18Zm22.52-.13c-1.41 2.33-2.82 3.37-3.8 3.37-.5 0-.8-.37-.25-1.29l3.25-5.62c1.23-2.14 3.74-1.6 2.58.49l-1.78 3.05ZM145.14 202.9l-.18.18c-1.66 1.95-3.31 3.48-4.36 3.48-.49 0-.8-.37-.24-1.28l3.37-5.87c.98-1.78.06-3.06-1.23-3.06-.98 0-2.08.55-3.25 1.71l.86-1.53h-2.33l-3.75 6.48c-.12-.06-.18-.12-.3-.18l-.19.18a4.79 4.79 0 0 1-3.5 1.72l2.22-3.8c1.4-2.44.12-4.7-2.1-4.7-1.77 0-3.18.73-4.53 3.06l-1.17 1.95-.98 1.71c-.06-.06-.12-.06-.19-.12l-.18.18c-1.9 2.2-3.56 3.61-5.4 4.4l6.38-10.88h-2.33l-4.11 7.16c-1.78 1.65-3.2 2.57-3.62 2.38-.56-.24 0-1.1.3-1.59l4.55-7.89h-2.34l-3.74 6.42c-.06-.06-.12-.06-.18-.12l-.19.19c-1.66 1.95-3.31 3.48-4.36 3.48-.49 0-.8-.37-.24-1.28l3.38-5.87c.98-1.78.06-3.06-1.23-3.06-.98 0-2.09.55-3.26 1.71l.86-1.53h-2.33l-3.74 6.42c-.06-.06-.13-.12-.25-.12l-.18.18c-1.66 1.96-3.32 3.49-4.36 3.49-.49 0-.8-.37-.24-1.28l3.74-6.55h-1.35c.06-.97-.92-2.32-2.46-2.32-1.22 0-3 .98-3.98 2.69l-2.4 4.16a5.66 5.66 0 0 0-.49-.3l-.18.18c-1.66 1.95-3.75 3.48-6.02 3.48-1.6 0-2.58-1.59-1.16-3.97l.67-1.16c.43.06.86.12 1.35.12 2.46 0 5.28-1.29 7.12-4.47.68-1.16.92-2.2.92-3.12 0-2.07-1.35-3.48-3.07-3.48-1.29 0-2.82.92-3.86 2.69l-3.63 6.24a3.8 3.8 0 0 1-2.08-3.3c0-1.1.49-2.15 1.47-2.94l-.74-1.34a5.23 5.23 0 0 0-2.39 4.34c0 1.83 1.04 3.6 2.95 4.58l-.68 1.22c-1.65 2.82-.67 5.94 2.64 5.94 2.58 0 4.54-1.16 6.14-2.7-.5 1.47.24 2.7 1.9 2.7.92 0 2.09-.62 3.25-1.53.13.91.86 1.53 2.03 1.53 1.1 0 2.33-.68 3.5-1.72l-.86 1.47h2.33l3.56-6.17c3.56-4.47 5.15-3.86 4.11-2.14l-3 5.25c-.99 1.72-.31 3.3 1.59 3.3 1.23 0 2.64-.85 3.99-2.07-.3 1.28.3 2.08 1.47 2.08 1.1 0 2.4-.92 3.44-1.9l-1.29 2.2c-3.13.92-5.16 2.2-5.16 3.98 0 2.2 3.44 2.69 5.1-.19l1.78-3.05c1.96-.61 3.86-1.84 5.89-3.8-.3 3.25 3.99 3.98 6.63.68h.49c.86 0 2.02-.3 3.07-.92l-1.54 2.7h2.33l3.56-6.19c3.56-4.46 5.16-3.85 4.12-2.13l-3.01 5.25c-.98 1.72-.3 3.3 1.6 3.3 1.9 0 4.1-2.07 6.07-4.28-.06-.18-.49-.55-.8-.67Zm-57.93-8.7c.67-1.15 1.47-1.7 2.09-1.7.85 0 1.28.55 1.28 1.4 0 2.14-2.64 6.06-6.26 6.06h-.49l3.38-5.75Zm8.22 9.06c-1.4 2.2-2.82 3.24-3.74 3.24-.5 0-.8-.37-.25-1.28l3.26-5.63c1.22-2.14 3.74-1.59 2.57.49l-1.84 3.18Zm17.68 8.44c-.5.85-1.3.73-1.3.12s.56-1.28 2.34-1.96l-1.04 1.84Zm15.7-8.69h-.12c-.73 0-1.34.62-1.34 1.41 0 .3.06.55.24.8v.06c-1.1 1.9-3.74 1.53-2.4-.92l1.79-3.06 1.1-1.9c1.66-2.75 3.87-1.64 2.46.74l-1.72 2.88ZM199.09 203.69a1.37 1.37 0 0 0-.86-.8l-.19.19c-.85.97-1.9 1.9-2.82 2.5.74-2.2.55-5.62 2.03-8.56l-1.72-.91c-.98 1.34-3.07 4.34-5.16 6.78l-.18.19c-1.66 1.95-3.31 3.48-4.36 3.48-.49 0-.98-.49-.98-1.59V204c1.66.19 3.38-.85 4.48-2.75l.61-1.1c2.15-3.73-1.35-4.95-3.74-2.75l3.31-5.75h-2.33l-6.63 11.5c-.12-.12-.3-.25-.43-.3l-.18.18c-1.66 1.95-3.8 3.48-5.46 3.48-1.41 0-2.27-.92-1.23-2.75l2.4-4.16c1.34-2.32 3.74-1.9 2.33.5l-.31.54h1.9l.3-.55c1.24-2.14.07-3.73-1.83-3.73-1.9 0-3.38.98-4.36 2.7l-2.27 3.9c-.06 0-.12-.06-.12-.06l-.19.19c-1.65 1.95-3.31 3.48-4.35 3.48-.5 0-.8-.36-.25-1.28l4.97-8.69h-2.33l-4.11 7.22c-1.78 1.6-3.13 2.5-3.56 2.32-.56-.24 0-1.1.3-1.59l4.55-7.88h-2.34l-4.54 7.76c-.49.43-1.04.86-1.47 1.23.74-2.2.55-5.63 2.02-8.57l-1.71-.91c-.99 1.34-6.32 8.44-8.47 10.88.18.3.55.55.86.8 1.35-1.53 5.77-7.22 6.56-8.32-.92 2.38-.43 6.73-2.64 6.73-.8 0-1.1-.86-1.1-.86l-1.47.73s.43 1.9 2.57 1.9c.25 0 .43 0 .68-.06h.06a8.05 8.05 0 0 0 3.44-1.47c0 .92.55 1.53 1.53 1.53 1.29 0 2.7-1.16 3.8-2.2-.24 1.22.5 2.2 1.97 2.2s3.07-1.16 4.6-2.7c0 1.54 1.23 2.7 3.13 2.7s3.75-1.04 5.4-2.45l-1.28 2.27h2.33l2.64-4.59v1.84c0 1.95.36 3 2.27 3 1.9 0 4.1-2.09 6.07-4.29 1.35-1.53 2.46-3.12 3.32-4.22-.92 2.39-.43 6.73-2.64 6.73-.8 0-1.1-.86-1.1-.86l-1.48.74s.43 1.9 2.58 1.9c.24 0 .43 0 .67-.07h.06c2.34-.43 4.73-2.32 6.45-4.34Zm-15.47-1.84.68-1.16c2.7-3.73 4.54-2.69 3.68-1.28l-1.1 1.9c-.68 1.22-2.7 2.07-3.26.54ZM199.03 205.28c-.74 0-1.35.61-1.35 1.34 0 .74.55 1.35 1.35 1.35.73 0 1.35-.55 1.35-1.35 0-.73-.62-1.34-1.35-1.34ZM199.15 204.36h2.33l7.3-12.66h-2.33l-7.3 12.66ZM49.22 169.75c0 .18-.06.37-.12.55-.06.18-.19.37-.31.49s-.3.25-.5.37c-.18.06-.42.12-.67.12-.3 0-.55-.06-.8-.18-.24-.13-.48-.25-.67-.43-.18-.19-.24-.37-.37-.61a3.08 3.08 0 0 1-.12-.8c0-.55.12-.98.3-1.47.2-.42.44-.85.8-1.16.13-.12.31-.3.5-.43.18-.12.36-.24.55-.3.18-.06.3-.19.43-.25.12-.06.18-.06.24-.12l.86 1.22c-.12.06-.3.13-.49.25-.18.06-.37.18-.55.3-.19.13-.3.31-.43.5-.12.18-.18.36-.18.6.42 0 .73.13 1.04.37.37.19.49.55.49.98Zm4.85 0c0 .18-.06.37-.12.55-.07.18-.19.37-.31.49s-.3.25-.5.37c-.18.06-.42.12-.67.12-.3 0-.55-.06-.8-.18-.24-.13-.49-.25-.67-.43-.12-.19-.25-.37-.37-.61a3.08 3.08 0 0 1-.12-.8c0-.55.12-.98.3-1.47.19-.42.43-.85.8-1.16.13-.12.31-.3.5-.43.18-.12.36-.24.55-.3.18-.06.3-.19.43-.25.12-.06.18-.06.24-.12l.86 1.22c-.12.06-.3.13-.49.25-.18.06-.37.18-.55.3-.19.13-.31.31-.43.5-.13.18-.19.36-.19.6.43 0 .74.13 1.05.37.3.19.49.55.49.98ZM216.76 205.77c0-.19.06-.37.13-.55.06-.19.18-.37.3-.5.13-.12.3-.24.5-.36.18-.06.42-.12.67-.12.3 0 .55.06.8.18.24.12.49.25.67.43.18.18.25.37.37.61.06.25.12.5.12.8 0 .55-.12.98-.3 1.46-.19.43-.43.86-.8 1.17a3.41 3.41 0 0 1-1.05.73c-.18.06-.3.18-.42.24-.13.06-.19.06-.25.13l-.86-1.23c.12-.06.3-.12.5-.24.18-.06.36-.18.54-.3.19-.13.31-.31.43-.5.13-.18.19-.36.19-.6-.43 0-.74-.13-1.05-.37-.3-.19-.49-.56-.49-.98Zm-4.78 0c0-.19.06-.37.12-.55.06-.19.18-.37.3-.5.13-.12.31-.24.5-.36.18-.06.43-.12.67-.12.3 0 .55.06.8.18s.49.25.67.43c.13.18.25.37.37.61.06.25.13.5.13.8 0 .55-.13.98-.31 1.46-.19.43-.43.86-.8 1.17-.12.12-.3.3-.49.42-.19.13-.37.25-.55.31-.19.06-.31.18-.43.24-.13.06-.19.06-.25.13l-.86-1.23c.19-.06.31-.12.5-.24.18-.06.36-.18.55-.3.18-.13.3-.31.43-.5.12-.18.18-.36.18-.6-.43 0-.74-.13-1.04-.37-.37-.19-.5-.56-.5-.98Z"/>
    </svg>

    <svg id="hero__sedona" fill="none" viewBox="0 0 229 39">
      <path fill="#fff" d="M27.32 26.64c0 .25-.05.45-.05.65-.26 2.01-.9 3.97-1.96 5.78a11.46 11.46 0 0 1-4.26 4.22c-.65.3-1.35.55-2.05.8-.7.2-1.4.4-2.1.56-.61.1-1.16.2-1.76.25-.6.05-1.16.1-1.7.1h-.6c-2.31-.1-4.62-.6-6.88-1.56-2.2-1-4.2-2.26-5.96-3.87l4.66-7.49.1.1.1.1a24.24 24.24 0 0 0 3.56 3.22c1.3.96 2.86 1.5 4.56 1.61.05 0 .1 0 .15.05.05 0 .1.05.15.05.05 0 .1 0 .15.05.05 0 .1.05.15.05.15 0 .3 0 .5-.05.15 0 .35-.05.5-.1a4.77 4.77 0 0 0 3.06-2.01c.05-.1.1-.15.1-.25.05-.1.1-.15.1-.25.1-.25.15-.5.15-.76.05-.25.05-.45.05-.65 0-1.06-.45-1.96-1.35-2.66-.9-.7-1.9-1.26-2.96-1.66-.45-.15-.85-.3-1.2-.4-.4-.1-.75-.2-1.1-.26-.05 0-.1 0-.1-.05-.05 0-.1-.05-.1-.05-1.9-.45-3.71-1.2-5.37-2.26a8.17 8.17 0 0 1-3.75-5.68c-.1-.45-.16-.85-.2-1.35-.06-.15-.06-.3-.06-.46v-.45c0-.3 0-.6.05-.95 0-.3.05-.6.15-.96.1-.75.3-1.56.6-2.31.26-.75.6-1.46 1.06-2.11A10.98 10.98 0 0 1 8.52 1.2C10.37.45 12.43 0 14.53 0c.5 0 1 .05 1.56.1.5.05 1.05.15 1.6.2 1.4.25 2.8.6 4.16 1.16 1.36.55 2.66 1.2 3.81 1.9l-3.2 7.2a28 28 0 0 0-3.31-2.07 7.95 7.95 0 0 0-3.76-.85h-.5c-.9.1-1.7.5-2.51 1.2-.75.7-1.15 1.41-1.15 2.22 0 .1 0 .25.05.35 0 .1.05.25.15.35.1.25.2.5.4.75.2.26.4.46.65.66.45.35 1.05.65 1.85.95.8.3 1.66.56 2.56.86.75.2 1.45.4 2.16.55.7.15 1.3.35 1.75.5a9.08 9.08 0 0 1 4.91 3.87c1.1 1.81 1.66 3.72 1.7 5.73v.25c-.04.25-.04.5-.1.76Zm30.07 3.11v8.35H34.63V.9H57.4v8.15H44.6v6.48h12.03v7.94H44.6v6.28h12.78Zm38.39-1.45a15.79 15.79 0 0 1-5.16 6.28 16.31 16.31 0 0 1-5.92 2.56c-2.15.45-4.3.75-6.46.85-.6.06-1.26.06-1.86.06H64.45V.85h12.58a36.98 36.98 0 0 1 7.97.9c2.06.46 3.91 1.32 5.62 2.57a15.28 15.28 0 0 1 5.06 6.03c1.2 2.52 1.9 5.08 2.05 7.7.05.24.05.44.05.7v1.5c-.15 2.82-.8 5.48-2 8.05Zm-8.22-9.2c0-.15 0-.3-.05-.45-.1-1.46-.45-2.92-1.05-4.28a8.44 8.44 0 0 0-2.56-3.31c-.8-.66-1.7-1.1-2.7-1.36-1-.25-2.01-.35-3.06-.4h-3.76v20.5c.1 0 .25 0 .4.05.15 0 .25.05.4.05.15 0 .3 0 .4.05.1 0 .25.05.35.05.4 0 .8 0 1.2-.05.46 0 .86-.05 1.2-.1 1.01-.1 2.01-.25 2.97-.5.95-.25 1.85-.7 2.6-1.2a7.85 7.85 0 0 0 2.76-3.67c.6-1.56.9-3.17.9-4.83v-.55Zm54.93 1.96c0 .4-.05.8-.15 1.2-.1.8-.2 1.61-.45 2.42a18.88 18.88 0 0 1-8.42 11.16 20.93 20.93 0 0 1-10.88 3.11c-.25 0-.55 0-.8-.05-.25 0-.5-.05-.8-.05a21.3 21.3 0 0 1-7.67-2.16 18.93 18.93 0 0 1-7.67-7.34 19.39 19.39 0 0 1-2.8-9.9c0-.5 0-1 .05-1.5.05-.51.1-1.06.25-1.57.2-1 .45-2 .8-3.06.35-1 .75-2.01 1.3-2.97a18.44 18.44 0 0 1 7.47-7.59A20.26 20.26 0 0 1 124.1.2c.5.05.95.1 1.4.1a21.14 21.14 0 0 1 8.32 3.02 18.33 18.33 0 0 1 6.42 7.13 20.36 20.36 0 0 1 2.25 9.3v1.3Zm-10.12-2.11c0-.25-.05-.46-.05-.7-.2-1.66-.7-3.27-1.5-4.83a9 9 0 0 0-3.36-3.62c-.4-.2-.76-.35-1.16-.5-.4-.15-.75-.3-1.15-.4-.4-.1-.75-.16-1.15-.2a8.87 8.87 0 0 0-6.62 1.76 9.88 9.88 0 0 0-3.5 4.97c-.06.1-.06.15-.1.25 0 .1-.06.15-.06.25l-.3 1.06c-.1.35-.15.75-.25 1.15-.05.25-.05.56-.1.8 0 .26-.05.51-.05.81v.45c0 .15 0 .3.05.46.1 2.06.75 4.02 1.9 5.88a8.08 8.08 0 0 0 4.77 3.66c.25.1.45.16.7.2l.75.16c.25.05.45.05.7.1.25 0 .45.05.7.05 2.06 0 3.91-.6 5.57-1.86a9.9 9.9 0 0 0 3.86-6.13c.1-.46.15-.86.2-1.31.05-.25.05-.55.1-.8 0-.26.05-.5.05-.76v-.9Zm43.85 19.15-14.08-19.2c-.4-.46-.75-1-1.1-1.66-.35-.65-.7-1.3-1-2.01-.26-.5-.46-1-.66-1.51a18 18 0 0 0-.6-1.36 42.83 42.83 0 0 1 .6 7.4V38.1h-9.77V.9h9.77L173.37 20c.35.56.7 1.1 1 1.71.35.6.65 1.2.95 1.86.25.5.45 1 .7 1.5.25.51.45 1.01.7 1.47l-.15-1.21-.15-1.2a18.2 18.2 0 0 1-.15-2.42c-.05-.8-.05-1.66-.05-2.51V.95h9.73v37.2h-9.73v-.05Zm42.66 0-1.86-6.69H202.7l-1.9 6.74h-10.03L203.49.95h12.63L229 38.15h-10.12v-.05ZM211.1 11.9c-.2-.6-.4-1.2-.55-1.86l-.46-1.9c-.1-.26-.15-.46-.15-.66-.05-.2-.1-.4-.1-.6l-.15.6-.15.65c-.05.1-.05.15-.05.2 0 .05 0 .15-.05.2-.1.6-.25 1.16-.4 1.71l-.45 1.66-3.76 12.31h10.08l-3.81-12.3Z"/>
    </svg>

    <svg id="logo" fill="none" viewBox="0 0 185 96">
      <path fill="#81B3D3" d="M185 0H0l79.8097 90.1011c7.0392 7.8652 18.4406 7.8652 25.4793 0L185 0Z"/>
      <path fill="#23A9E1" d="M42.8296.696915 92.0043 58.8395 140.882 1.09515 42.8296.696915Z"/>
      <path fill="#fff" d="M120.954 17.2237c-5.056 0-10.013.0996-15.07.0996 5.949-6.8696 8.626-6.1727 15.07-.0996ZM80.1072 22.5999h26.4708c-1.983-1.1947-6.6423-7.0687-9.22-4.8784-.1983.1992-7.4357-8.86073-12.1945-4.4801-4.164 3.7832-6.0477-.4978-10.8066 2.489-5.2545 3.5841 3.1726 5.6748 5.7503 6.8695Z"/>
      <path fill="#491213" d="M92.3017 0H41.8382v22.4008l50.1661 61.229.2974-.3983 50.2653-60.1338V0H92.3017ZM54.4293 1.79207h5.4528V18.9163l-5.4528-6.4714V1.79207Zm-.7932 9.75683L48.679 5.67488V1.79207h4.9571v9.75683Zm19.1345-2.68813-5.6511-7.0687h5.6511v7.0687ZM66.2272 12.644l-5.552-10.85193h5.552V12.644Zm-5.6511-9.25899 5.4528 10.65289c-2.776 2.0907-4.6597 3.9823-5.4528 4.8784V3.38501Zm6.4443-.49779 5.5519 6.86959c-1.0905.59739-2.1811 1.29429-3.0734 1.89159-.8923.5974-1.6854 1.1947-2.4785 1.7921V2.88722Zm6.5434-.19912 4.7588 4.18149c-1.6854.69691-3.2717 1.49339-4.7588 2.28986V2.6881Zm5.552 3.88281-5.3537-4.77884h5.9485v4.57972c-.2974 0-.3966.09956-.5948.19912ZM98.052 1.79207h4.957l-4.957 2.38942V1.79207Zm-5.7503 0h4.3623l-4.3623 2.09074V1.79207Zm-.8923 1.99118-4.164-1.99118h4.164v1.99118Zm-5.4528.4978-5.0563-2.48898h5.0563v2.48898Zm-5.552-1.89163 4.6597 2.28986c-1.5863.39824-3.1726.79648-4.6597 1.29427V2.38942Zm6.3451 0 3.3709 1.59295c-1.1897.09956-2.2803.19912-3.47.39824V2.38942h.0991Zm10.3109.09956v1.89163c-1.0906-.19912-2.1812-.29868-3.3709-.39824l3.3709-1.49339Zm6.4444-.09956v3.68369c-1.487-.49779-3.074-.99559-4.759-1.39383l4.759-2.28986Zm.694-.59735h5.849l-5.353 4.77884c-.199-.09956-.298-.09956-.496-.19912V1.79207Zm13.483 0h5.552L117.682 12.644V1.79207Zm-6.543 0h5.651l-5.651 6.96914V1.79207Zm-.793.89603v6.47135c-1.487-.79647-3.074-1.59295-4.759-2.28986l4.759-4.18149Zm6.543.19912V13.3409c-.694-.4978-1.487-.9956-2.28-1.5929-.992-.6969-2.181-1.3938-3.371-2.09075l5.651-6.77003Zm6.345.49779V18.518c-1.09-.9956-2.875-2.6881-5.453-4.5797l5.453-10.55329Zm.793 15.92949V1.79207h5.453V13.1418l-5.453 6.1727c.099.0996 0 .0996 0 0Zm6.246-17.52243h4.957v4.67928l-4.957 5.77445V1.79207Zm-82.288 0v2.88721l-2.4786-2.88721h2.4786ZM60.6752 19.9118l.0992.0996s3.5691-3.8828 9.1211-7.5665c5.2546-3.48457 13.186-7.5665 22.1088-7.46694 8.8237 0 16.9537 4.18149 22.1087 7.66604 5.552 3.6837 9.22 7.467 9.319 7.5665l-3.866 4.4802c-6.841.896-11.798 6.0731-18.441 4.978-3.3704-.5974-3.4696-2.489-4.461-4.4802-.694-1.4934-1.8837-1.2943-3.47-1.8916-1.388-.5974-2.2803-1.6925-5.1554-1.0952-2.4786.5974-2.776 4.4802-5.9486 4.2811-1.6854-.0996-1.7845-2.489-4.164-5.4758-6.2459-7.5665-12.0953-6.4714-16.061.4978l30.0401 35.7418-31.2299-37.3348ZM135.924 5.47576V1.79207h3.173l-3.173 3.68369Z"/>
      <path fill="#23A9E1" d="m87.9394 70.5875 4.0649-6.4714 3.9657 6.4714-3.9657 6.4714-4.0649-6.4714Z"/>
      <path fill="#fff" d="M64.9384 32.1576c.4957.5974.8923 1.2943.7931 2.0908-.0991.5973-.8923 1.5929-.2974 1.792.694-.896 1.4871-1.8916 2.1811-2.7876-.5948-.1991-5.3537-5.7745-5.3537-6.4714-1.0905.5974-2.082 1.1947-3.1725 1.6925.1983.697 1.2888 0 1.8837 0 .7931.0996 1.388.5974 1.9828 1.1948-1.6854 1.3938-5.8494 4.9779-6.3451 5.0775-.1983 0-1.0906-.5974-1.0906-.0996 0 .2987.8923.9956.9915 1.1947.694.8961 1.4871 1.7921 2.1811 2.6881.5949-.2987-.0991-.6969.1983-1.1947.2974-.3982 4.858-4.281 6.0477-5.1771ZM59.6838 25.1885c.3966-.0996.5949.3982.9914-.0996-.7931-.9956-1.5862-1.8916-2.3794-2.8872-.3966-.3982-.7931-.896-.694 0 .0992.5974-6.0477 5.6749-6.4442 5.7744-.4958.1992-.7932-.3982-1.0906.0996.694.896 1.4871 1.6925 2.1811 2.5885.1983.2987.4957.5974.694.8961.2974.2987.1983-.6969.1983-.5974-.0991-.4978.4957-.896.8923-1.1947 1.4871-1.2943 5.2545-4.5797 5.6511-4.5797ZM50.9593 24.2925c-1.7846.4978-3.6683-.1992-4.164-1.9912-.4957-1.7921.5948-3.7833 2.082-4.7789 1.388-.9956 3.5691-.9956 4.3623.7965.2974.7965.1982 1.6925-.0992 2.489-.1983.4978-.5948.9956.0992 1.2943.8922-1.0952 1.6854-2.1904 2.5777-3.2855-1.0906-.5974-1.4872-1.6925-2.2803-2.5885-.8923-1.0952-2.082-2.0908-3.47-2.2899-2.8751-.3982-5.552 2.5885-5.7503 5.1771-.0991 1.4934.3966 2.7876 1.1897 3.9823.7932.9956 1.8837 1.593 2.3795 2.7877.2974.0996 2.6768-.9956 3.2717-1.2943-.0992-.0995-.0992-.1991-.1983-.2986 0 0-.694.1991 0 0ZM89.9223 60.532c-1.1897-.7965-3.9657-4.6793-4.5606-5.2766-.0991-.0996-.1982-.2987-.2974-.3983 0 0-.2974.1992-.1983.1992-.1983.0995.0992.5973-.0991.896-.7932 1.1947-5.7503 4.978-5.9486 5.1771-.5948.3982-1.1897-.1991-1.4871.2987.694.896 2.776 3.4845 2.9743 3.5841.4957.0995.0991-.7965.1982-.9956.0992-.3982 2.5778-2.3894 3.47-3.1859.2975-.2987.694.3982.8923.6969.2974.4978.4957.9956.2975 1.593-.0992.3982-.694.896-.2975 1.1947.5949-.6969 2.3794-2.7877 2.5777-2.9868.2975-.2987-.5948 0-.4957-.0996-.3966.1992-.694.1992-1.0906 0-.0991-.0995-1.0905-1.0951-.9914-1.1947.3966-.3982.9914-.9956 1.4872-1.0951.8922-.1991 1.5862 1.4934 1.6854 2.0907.0991.5974.0991 1.1947-.0992 1.7921-.0991.3982-.4957.6969 0 .896.694-.9956 1.388-1.8916 2.082-2.8872.1983-.1991 0-.2987-.0991-.2987.1983 0-.0992-.0995 0 0ZM79.8098 56.3505c2.1811-1.8916 2.4785-5.0775.7931-7.2678-1.8837-2.489-5.3537-3.0863-7.7331-1.0951-2.1812 1.8916-2.4786 4.9779-.7932 7.2678 1.9829 2.6881 5.1555 2.9868 7.7332 1.0951 1.1897-.896-.0992.0996 0 0Zm-.4958-4.6793c-.5948 1.4934-2.1811 3.0864-3.6682 3.6837-1.7846.697-3.0734-.7964-2.3794-2.5885.6939-1.4934 2.1811-3.0863 3.6682-3.6837 1.8837-.6969 3.0734.896 2.3794 2.5885.0992-.1991-.3965.8961 0 0ZM73.4646 41.8149c.4957.0995.8923.4978 1.2889 0-.694-.8961-1.4872-1.7921-2.1812-2.5886-.5948.2987.0001.4978-.1982.9956-.1983.3983-2.5777.7965-3.1726.8961.1983-.5974.8923-2.5886 1.1897-2.7877.4957-.3982.8923.3982 1.2889-.0996-.8923-1.0951-1.7846-2.1903-2.6769-3.2854-.2974-.3982-.5948-.9956-.9914-.6969 0 0 0 1.4934-.0991 1.6925-.0992.1991-.8923 3.5841-1.8838 4.4801-.4957.3983-2.1811 1.8917-2.6768 2.0908-.4957.1991-.7931-.5974-1.1897 0 .7931.9956 1.6854 1.9912 2.4785 2.9868.0992.0995.5949.896.7932.896.4957.0996.0991-.896.0991-1.0951.1983-.3983 2.4786-2.6881 3.47-2.8873 1.1897-.1991 2.9743-.6969 4.4614-.5973.2975.0995-.3965 0 0 0Z"/>
      <path fill="#DC6243" d="M67.2187 22.7991c-3.9657-.1992-2.3795-3.9824.3965-4.7789 2.5777-.7965 8.0306 1.6925 9.716 3.385-2.776.8961-6.3451.6969-9.3194.8961-.1983-3.1859-.9914-2.0908-.7931.4978ZM76.6372 35.244c-8.5263-.0996-2.776-13.2414.0991-12.4449 3.3709 1.0951 2.9743 12.5444-.0991 12.4449ZM82.6849 30.9629c-.7931 2.489-2.3794 2.9868-2.1811-.0995.1982-3.4846 2.4785-2.6881 4.8579-3.9824 1.9829-1.0952 3.0735-5.1771 6.5435-2.7877 1.5862 1.0952 3.3708.1992 3.8665 1.7921 0-.0996-4.4614 10.2546-1.9828 10.2546-4.9572 0-2.776-5.874-.8923-9.8564-1.7846.8961-4.7589 6.6705-2.3794 7.5665-1.2889 1.6925-5.1555 3.8829-7.1383 2.2899-1.4872-1.0951-.694-3.1859-.694-5.1771ZM86.7497 40.5206c-3.47.9956-8.0305-1.1947-2.4785-2.2899 3.47-.6969 7.1382.697 2.4785 2.2899.0992 0-.0991 0 0 0ZM91.112 40.421c-.694-1.6925.5948-3.5841 2.6768-2.1903 1.7846 1.1948-.8922 3.0864-2.6768 2.1903ZM88.1377 45.0008c-2.3794-.6969-10.4099-.5974-5.1554-2.7877 1.6854-.5973 10.1126.1991 5.1554 2.7877ZM98.5477 48.2862c-1.388-1.1947-2.8752-1.2942-4.164 0-1.7846-3.2854-8.2288-2.1903-11.3022-2.6881 1.5862 4.082 14.673 4.8784 15.4662 2.6881ZM96.664 50.7752c-3.1726-.0995-6.6426-.5973-9.5177.0996 1.8837.4978 6.3451 1.792 2.1811 2.8872 1.4872 2.1903 3.9657 1.9912 5.552.0995-.694-.2986-.9914-.6969-1.5863-1.0951 1.5863-.2987 3.1726-1.1947 3.3709-1.9912ZM100.233 46.8924c-5.2544-3.0863-3.9656-5.3762.397-7.5665 2.28-1.0952 7.237-5.1771 9.319-3.8828-3.272 3.8828-6.543 7.6661-9.716 11.4493Z"/>
      <path fill="#F49774" d="M96.4657 39.6246c-4.4614-4.5797 6.6423-4.1815 8.4273-5.7745 1.289.3983 10.707-8.2634 12.987-7.666-1.685 1.8916-5.155 8.0643-7.733 8.0643-1.982 0-3.965-.2987-5.452 1.0951-2.182 2.0908-5.8499 3.0864-8.2293 4.2811Z"/>
      <path fill="#F4B1A4" d="M97.9529 34.0493c-2.4786 1.2942-4.7589-3.8829-.4958-3.3851 2.7759.2987 5.6509-.1991 8.2289.1992-1.983 2.2898-4.66 3.5841-7.7331 3.1859Z"/>
      <path fill="#fff" d="M110.445 52.2686c.198.5974.297 1.2943.198 1.9912-.099.896-.991 2.8872-2.181 2.2898-1.19-.5973-2.181-1.6925-3.173-2.5885.794-.896 1.488-1.6925 2.876-1.2943.396.0996.694 0 .297-.2986-.397-.1992-3.073-1.9912-3.272-1.7921-.297.2987.496.896.199 1.4934-.199.3982-.595.7965-.893 1.1947-.694-.5974-1.883-1.2943-1.09-2.2899.495-.6969 1.289-1.1947 2.082-1.2942.595-.0996 1.784.3982 1.983-.1992-1.091-.4978-2.182-.9956-3.272-1.5929.198.7965-3.272 4.4802-4.065 5.4758-.099.0995-.694.5973-.694.7964 0 .3983.595.0996.694.0996.496-.1991 6.742 5.0775 6.94 5.4757.099.2987-.198.5974 0 .697 0 0 .198.1991.297.1991.397-.4978 4.462-5.9736 5.354-6.1727-.793-1.1947-1.586-2.3894-2.379-3.6837-.595.2987 0 .9956.099 1.4934ZM104.298 58.9391c-2.082-1.2943-5.552 1.2942-6.0477 1.4934-.9915.4978-1.7846-.4978-1.2889-1.4934.4957-.7965 1.388-1.1947 2.2803-1.2943.2974 0 1.2893.1991 1.4873 0 .099-.1991.198-.1991 0-.2987-.8924-.5973-1.6856-1.1947-2.5779-1.6925-.1983 1.0952-1.388 1.6925-2.082 2.3894-.7931.8961-1.4871 1.8917-1.4871 3.1859 0 1.0952.694 2.0908 1.6854 2.6881 1.0906.5974 2.2803.0996 3.2717-.4978.5949-.3982 1.2889-.896 1.8839-1.1947.991-.4978 2.28-.0995 1.983 1.2943-.298 1.0951-1.388 2.0907-2.38 2.2899-.595.1991-1.2886.0995-1.8834-.0996-.3966-.0996-.9915-.6969-1.1898-.0996 1.1898.7965 2.2802 1.6925 3.4702 2.489.099-.7965.496-1.0951 1.09-1.5929.694-.5974 1.388-1.2943 1.983-2.0908 1.19-1.6925 1.587-4.0819-.198-5.4757ZM104.298 58.9391c-.595-.4978.991.5973 0 0ZM140.683 19.5136c-.694.6969-8.328-2.2899-8.923-2.7876-.297-.0996-.297-1.2943-.694-.7965-.396.4978-.793.9956-1.189 1.4934-.397.4978-.793.9956-1.289 1.4934-.298.2986-.496.4978 0 .6969.793-.3983 5.354 7.2678 4.957 8.4625-.694.3982-6.841-5.0775-7.039-5.3762-.099-.0996.297-.9956-.198-.896-.199 0-.694.896-.893 1.0951-.297.3983-.595.6969-.892 1.0952.297.4978.496 0 .991 0 .397.0995 1.785 1.2942 2.182 1.6925-.694 0-2.677.0995-2.876.0995-.892.0996-.396-.6969-.991-.896-.793.896-1.487 1.7921-2.28 2.7877-.397.4978-.893 1.0951-1.289 1.5929-.099.0996 0 0 0 .0996.297.2987.099.1991.595 0 .495-.1991 6.543 4.8784 6.741 5.1771.397.3982-.198.9955.397 1.1947.595-.6969 1.19-1.4934 1.785-2.1903.099-.0996.099-.0996 0-.1992-.397-.3982-.496.1992-.992.1992-.496-.0996-4.362-3.3851-5.849-4.5798 1.784-.0995 7.237-.2986 8.129-.2986.298 0 1.091.896 1.091 1.1947-.099.3982-.496.5973.099.7964.496-.5973.992-1.0951 1.487-1.6925l.199-.2986c.099-.0996.099-.0996.198-.2987l.198-.1991c.397-.4978 1.785-1.9912 1.586-2.0908-.495-.3982-.694.4978-1.288-.0995-.298-.1992-1.19-1.7921-1.388-2.1903-.298-.3983.594-.8961.991-1.0952.793-.4978 3.173-1.1947 3.47.2987 0 .2987-.297.4978-.099.6969 0 0 .198.1991.297.1991.199-.1991 2.38-2.7876 3.272-3.9824-.297-.1991-.397-.2986-.496-.3982Zm-7.336 2.1903c.099 0 .198-.0995 0 0-.298.1991-.694.4978-.992.7965-.495-.896-.991-1.7921-1.586-2.6881 1.19.4978 2.379.9956 3.47 1.4934-.198.0995-.496.1991-.892.3982ZM123.73 32.8545c-2.38-1.9911-5.552-1.3938-7.535.7965-1.884 2.2899-1.685 5.6749.595 7.5665 2.28 1.8917 5.651 1.3939 7.535-.7964 1.883-2.2899 1.784-5.6749-.595-7.5666Zm-.298 6.571s0 .0995 0 0c-1.288 1.2942-3.37.0995-4.461-.697-1.091-.7964-3.073-2.5885-1.884-4.0819 1.091-1.2943 3.074-.1991 4.164.4978 1.19.7965 3.371 2.5886 2.281 4.1815.099-.0996.099-.0996-.1.0996Z"/>
      <path fill="#fff" d="M123.73 32.8546c-.298-.1992 1.19.9955 0 0ZM123.432 39.5255c0-.1 0-.1 0 0l.1-.1c-.1 0-.1.1-.1.1ZM117.186 41.9144c.1.0996.298.2987 0 0-2.875-2.1903-6.245-1.5929-8.427 1.0952-.991 1.1947-1.982 2.3894-2.974 3.5841.397.4978.793-.0995 1.289.1991.397.2987 6.147 5.0776 6.246 5.3762.198.4978-.297.4978.099.8961.198.0995 4.461-5.1771 4.858-6.1727.892-1.7921.297-3.6837-1.091-4.978Zm-1.288 6.7701c-.199.2987 0 .0995-.694.6969-.298.2987-6.345-4.6793-6.147-4.8784.793-.896 2.578-1.593 3.569-1.2943 2.181.4978 5.155 3.1859 3.272 5.4758Z"/>
    </svg>

    <svg id="htmlacademy-logo" width="27" height="35" fill="none" viewBox="0 0 27 35">
      <path fill="currentColor" d="M13.65.45h-.1L.05 1.85v24.7l13.5 8 13.4-8V1.85L13.65.45Zm11.4 12.1-11.5-6.8v-.1h-.1l-.1-.1v.1l-11.4 6.9v-9l11.5-1.2 11.6 1.2v9Zm-11.6-5.3 11.5 6.7-4.5 2.6-7.1-4.2v1.4l5.9 3.5-.9.5-5-3v1.4l3.8 2.3-.8.5-3-1.8v1.4l1.9 1.1-1.8 1.1-11.4-6.7 11.4-6.8Zm-11.5 8.3 11.4 6.8v1l-7.9-4.7v1.4l8 4.8v1.1l-8-4.7v1.4l8 4.8 8.1-4.9v-5.2l3.4-2v10l-11.5 6.9-11.5-6.8v-9.9Z"/>
    </svg>

</svg>
