<svg xmlns="http://www.w3.org/2000/svg">
  <style>:root svg:not(:target) { display: none }</style>
    <svg id="icon-housing" fill="none" viewBox="0 0 40 38">
      <path fill="#81B3D2" d="M15.9 33.8h8.35V21.65H15.9V33.8Zm6.84-1.47h-5.32v-9.2h5.27v9.2h.05Z"/>
      <path fill="#81B3D2" d="m38.4 20.63 1.1-1.07-5.17-5.04V.8h-7.2V7.5L19.97.58.5 19.61l1.1 1.07 4.07-3.97v19.23H3.63v1.48H37v-1.48h-2.66V16.66l4.07 3.97ZM28.64 2.3h4.13v10.74l-4.13-4.02V2.3Zm4.18 33.58H7.23v-20.7L19.97 2.71l12.8 12.46v20.7h.05Z"/>
      <path fill="#81B3D2" d="M16.06 14.42a4.01 4.01 0 0 0 4.02 3.97 4.03 4.03 0 0 0 4.07-3.97 3.98 3.98 0 0 0-4.07-3.92 3.94 3.94 0 0 0-4.02 3.92Zm4.02-2.54a2.59 2.59 0 0 1 2.6 2.54 2.58 2.58 0 0 1-2.6 2.55 2.59 2.59 0 0 1-2.61-2.55c0-1.37 1.2-2.54 2.6-2.54ZM10.89 21.65H9.32v1.98h1.57v-1.98ZM13.97 21.65H12.4v1.98h1.57v-1.98ZM10.89 24.7H9.32v1.98h1.57V24.7ZM13.97 24.7H12.4v1.98h1.57V24.7ZM27.54 21.65h-1.56v1.98h1.56v-1.98ZM30.68 21.65H29.1v1.98h1.57v-1.98ZM27.54 24.7h-1.56v1.98h1.56V24.7ZM30.68 24.7H29.1v1.98h1.57V24.7Z"/>
    </svg>

    <svg id="icon-food" fill="none" viewBox="0 0 40 36">
      <path fill="#81B3D2" d="M37.74 23.85H2.26A2.23 2.23 0 0 0 0 26.03v1.77c0 1.17 1 2.13 2.26 2.13h.52v.5a5.12 5.12 0 0 0 5.2 5.02h24.04c2.89 0 5.2-2.28 5.2-5.01v-.51h.52c1.21 0 2.26-.96 2.26-2.18v-1.77c0-1.12-1-2.13-2.26-2.13Zm-2.04 6.59c0 1.92-1.63 3.49-3.63 3.49H7.93c-2 0-3.63-1.57-3.63-3.5v-.5h31.4v.5Zm2.73-2.69c0 .36-.32.66-.69.66H2.26a.68.68 0 0 1-.69-.66v-1.77c0-.3.32-.61.69-.61H37.8c.36 0 .68.3.68.66v1.72h-.05ZM8.5 19.75l2.84 2.02 2.89-2.02 2.88 2.02L20 19.75l2.83 2.02 2.9-2.02 2.88 2.02 2.89-2.02 2.88 2.02 3.31-2.38-.9-1.21-2.4 1.67-2.9-2.03-2.88 2.03-2.89-2.03-2.89 2.03L20 17.82l-2.89 2.03-2.88-2.03-2.9 2.03-2.83-2.03-2.88 2.03-2.42-1.67-.94 1.21 3.36 2.38 2.88-2.02ZM37.22 16.3c0-.3.05-1.31 0-1.52C36.85 6.88 29.29.55 20 .55 10.7.55 3.1 6.88 2.73 14.78v1.52h34.49ZM20 2.07c8.4 0 15.33 5.67 15.64 12.71H4.3C4.67 7.74 11.6 2.07 20 2.07Z"/>
      <path fill="#81B3D2" d="M20 9.16c.58 0 1.05-.45 1.05-1.01S20.58 7.14 20 7.14c-.58 0-1.05.45-1.05 1 0 .57.47 1.02 1.05 1.02ZM15.8 6.68c.58 0 1.05-.45 1.05-1.01s-.47-1.02-1.05-1.02c-.58 0-1.05.46-1.05 1.02s.47 1 1.05 1ZM24.2 6.68c.58 0 1.05-.45 1.05-1.01s-.47-1.02-1.05-1.02c-.58 0-1.05.46-1.05 1.02s.47 1 1.05 1Z"/>
    </svg>

    <svg id="icon-souvenir" fill="none" viewBox="0 0 32 38">
      <path fill="#81B3D2" d="M30.58 11.2h-12.4c6.91-3.44 7.47-5.62 7.22-6.83-.56-1.98-2.85-3.5-4.98-2.69-2.8 1.07-3.56 5.22-4.32 8.2-.96-3.03-1.88-6.88-4.06-8.85A3.7 3.7 0 0 0 9.14 0c-2.03.2-4.92 2.69-3.7 5.47 1.11 2.69 4.82 4.4 7.3 5.78H1.43c-.81 0-1.42.65-1.42 1.41v5.68c0 .8.66 1.42 1.42 1.42h.15V38h28.96V19.77h.05c.81 0 1.42-.66 1.42-1.42v-5.68c0-.8-.66-1.46-1.42-1.46Zm-9.35-8.25c1.07-.15 2.5.66 2.64 1.62.2 1.37-1.67 2.63-2.54 3.2-1.27.85-2.49 1.3-3.65 2.02.4-1.88 1.27-6.54 3.55-6.84ZM9.75 7.91c-1.12-.76-3.25-2.23-3.2-3.9C6.6 2.2 9.45.72 10.97 2.1c1.93 1.67 2.85 5.57 3.56 8.3-1.63-.8-3.15-1.41-4.78-2.48Zm3 28.57h-9.7V19.77h9.7v16.71Zm0-18.23H1.52v-5.52h11.23v5.52Zm5.08 18.23h-3.6V12.73h3.6v23.75Zm11.17 0h-9.65V19.77h9.7v16.71H29Zm1.48-18.23H19.35v-5.52h11.13v5.52Z"/>
    </svg>

    <svg id="icon-vkontakte" viewBox="0 0 24 14" fill="none">
      <path fill-rule="evenodd" clip-rule="evenodd" d="M23.45 0.948C23.616 0.402 23.45 0 22.655 0H20.03C19.362 0 19.054 0.347 18.887 0.73C18.887 0.73 17.552 3.926 15.661 6.002C15.049 6.604 14.771 6.795 14.437 6.795C14.27 6.795 14.019 6.604 14.019 6.057V0.948C14.019 0.292 13.835 0 13.279 0H9.151C8.734 0 8.483 0.304 8.483 0.593C8.483 1.214 9.429 1.358 9.526 3.106V6.904C9.526 7.737 9.373 7.888 9.039 7.888C8.149 7.888 5.984 4.677 4.699 1.003C4.45 0.288 4.198 0 3.527 0H0.9C0.15 0 0 0.347 0 0.73C0 1.412 0.89 4.8 4.145 9.281C6.315 12.341 9.37 14 12.153 14C13.822 14 14.028 13.632 14.028 12.997V10.684C14.028 9.947 14.186 9.8 14.715 9.8C15.105 9.8 15.772 9.992 17.33 11.467C19.11 13.216 19.403 14 20.405 14H23.03C23.78 14 24.156 13.632 23.94 12.904C23.702 12.18 22.852 11.129 21.725 9.882C21.113 9.172 20.195 8.407 19.916 8.024C19.527 7.533 19.638 7.314 19.916 6.877C19.916 6.877 23.116 2.451 23.449 0.948H23.45Z" fill="#ffffff"/>
    </svg>

    <svg id="icon-telegram" viewBox="0 0 22 18" fill="none">
      <path d="M21.4393 1.62225L18.2705 16.566C18.0313 17.6205 17.408 17.883 16.5223 17.3865L11.6938 13.8285L9.36425 16.0695C9.10626 16.3275 8.891 16.5428 8.39375 16.5428L8.741 11.6258L17.6893 3.54C18.0785 3.1935 17.6045 3.00075 17.0848 3.348L6.02225 10.314L1.25976 8.823C0.224006 8.49975 0.205256 7.78725 1.47576 7.29L20.1035 0.113253C20.966 -0.209997 21.7205 0.305253 21.4393 1.623V1.62225Z" fill="#ffffff"/>
    </svg>

    <svg id="icon-youtube" fill="none" viewBox="0 0 20 14">
      <path fill="#fff" d="M17.18 0H2.81C1.31 0 0 1.3 0 2.8v8.3C0 12.7 1.3 14 2.81 14h14.37A2.8 2.8 0 0 0 20 11.2V2.8c.1-1.5-1.2-2.8-2.8-2.8ZM7.03 10.4V3.6L13.87 7l-6.84 3.4Z"/>
    </svg>

    <svg id="tick" viewBox="0 0 23 16" fill="none">
      <path d="M22.3053 1.30662L21.259 0.22188C20.9736 -0.0739599 20.4029 -0.0739599 20.1176 0.22188L8.79884 11.9569L2.90167 5.84283C2.61633 5.54699 2.04563 5.54699 1.76028 5.84283L0.71401 6.92758C0.428663 7.22342 0.428663 7.8151 0.71401 8.11094L8.13303 15.8028C8.32326 16 8.51349 16 8.70373 16C8.89396 16 9.08419 15.9014 9.27442 15.8028L22.115 2.48999C22.5906 2.19415 22.5906 1.70108 22.3053 1.30662Z" fill="#333333"/>
    </svg>

    <svg id="phone" viewBox="0 0 18 18" fill="none">
      <path d="M3.6 7.8C5 10.6 7.4 12.9 10.2 14.4L12.4 12.2C12.7 11.9 13.1 11.8 13.4 12C14.5 12.4 15.7 12.6 17 12.6C17.6 12.6 18 13 18 13.6V17C18 17.6 17.6 18 17 18C7.6 18 0 10.4 0 1C0 0.4 0.4 0 1 0H4.5C5.1 0 5.5 0.4 5.5 1C5.5 2.2 5.7 3.4 6.1 4.6C6.2 4.9 6.1 5.3 5.9 5.6L3.6 7.8Z" fill="#010101"/>
    </svg>

    <svg id="email" viewBox="0 0 16 12" fill="none">
      <path d="M8 8C7.7 8 7.5 7.9 7 7.7L0 4V11C0 11.5 0.5 12 1 12H15C15.5 12 16 11.5 16 11V4L9 7.7C8.5 7.9 8.3 8 8 8ZM15 0H1C0.5 0 0 0.5 0 1V1.8L8 6L16 1.8V1C16 0.5 15.5 0 15 0Z" fill="black"/>
    </svg>

    <svg id="play" viewBox="0 0 48 54" fill="none">
      <path d="M48 27L0 54L2.42273e-06 0L48 27Z" fill="white" fill-opacity="0.7"/>
    </svg>

    <svg id="like-icon" fill="none" viewBox="0 0 23 21">
      <path fill="#000" d="m12.96 3.78-.62 3.05-.63 2.62h9.09v2.2l-3.03 7.25h-9.4V8.4l4.6-4.62ZM2.1 10.5v8.4-8.4ZM13.8 0 6.9 6.93c-.42.32-.63.84-.63 1.47v10.5c0 1.16.94 2.1 2.1 2.1h9.4c.84 0 1.57-.52 1.88-1.26l3.14-7.45c.1-.21.1-.53.1-.74v-2.1H23a2.1 2.1 0 0 0-2.1-2.1h-6.58l1.05-4.83v-.31c0-.43-.21-.84-.42-1.16L13.8 0ZM4.18 8.4H0V21h4.18V8.4Z" opacity=".3"/>
    </svg>

</svg>
